<?xml version="1.0" encoding="UTF-8" standalone="no"?><!DOCTYPE svg PUBLIC "-//W3C//DTD SVG 1.1//EN" "http://www.w3.org/Graphics/SVG/1.1/DTD/svg11.dtd"><!-- Generated by graphviz version 2.40.1 (20161225.0304)
 --><!-- Title: G Pages: 1 --><svg xmlns="http://www.w3.org/2000/svg" xmlns:xlink="http://www.w3.org/1999/xlink" width="281pt" height="289pt" viewBox="0.00 0.00 281.06 289.30">
<g id="graph0" class="graph" transform="scale(1 1) rotate(0) translate(4 285.299)">
<title>G</title>
<polygon fill="#ffffff" stroke="transparent" points="-4,4 -4,-285.299 277.0629,-285.299 277.0629,4 -4,4"/>
<!-- node1 -->
<g id="node1" class="node">
<title>node1</title>
<ellipse fill="none" stroke="#000000" cx="18.0079" cy="-139.299" rx="18.0157" ry="18.0157"/>
<text text-anchor="middle" x="18.0079" y="-135.099" font-family="Times,serif" font-size="14.00" fill="#000000">A</text>
</g>
<!-- node2 -->
<g id="node2" class="node">
<title>node2</title>
<ellipse fill="none" stroke="#000000" cx="97.0236" cy="-210.299" rx="18" ry="18"/>
<text text-anchor="middle" x="97.0236" y="-206.099" font-family="Times,serif" font-size="14.00" fill="#000000">B</text>
</g>
<!-- node1&#45;&gt;node2 -->
<g id="edge1" class="edge">
<title>node1-&gt;node2</title>
<path fill="none" stroke="#000000" d="M31.4118,-151.3431C43.558,-162.2572 61.6623,-178.5249 75.7785,-191.2091"/>
<polygon fill="#000000" stroke="#000000" points="73.7763,-194.1154 83.5539,-198.1957 78.4549,-188.9085 73.7763,-194.1154"/>
<text text-anchor="middle" x="57.5157" y="-181.499" font-family="Times,serif" font-size="14.00" fill="#000000">a</text>
</g>
<!-- node3 -->
<g id="node3" class="node">
<title>node3</title>
<ellipse fill="none" stroke="#000000" cx="97.0236" cy="-139.299" rx="18" ry="18"/>
<text text-anchor="middle" x="97.0236" y="-135.099" font-family="Times,serif" font-size="14.00" fill="#000000">C</text>
</g>
<!-- node1&#45;&gt;node3 -->
<g id="edge4" class="edge">
<title>node1-&gt;node3</title>
<path fill="none" stroke="#000000" d="M36.3343,-139.299C45.9081,-139.299 57.8381,-139.299 68.5808,-139.299"/>
<polygon fill="#000000" stroke="#000000" points="68.7966,-142.7991 78.7966,-139.299 68.7965,-135.7991 68.7966,-142.7991"/>
<text text-anchor="middle" x="57.5157" y="-143.499" font-family="Times,serif" font-size="14.00" fill="#000000">0</text>
</g>
<!-- node4 -->
<g id="node4" class="node">
<title>node4</title>
<ellipse fill="none" stroke="#000000" cx="97.0236" cy="-49.299" rx="18.0157" ry="18.0157"/>
<text text-anchor="middle" x="97.0236" y="-45.099" font-family="Times,serif" font-size="14.00" fill="#000000">D</text>
</g>
<!-- node1&#45;&gt;node4 -->
<g id="edge7" class="edge">
<title>node1-&gt;node4</title>
<path fill="none" stroke="#000000" d="M30.0086,-125.6299C42.7716,-111.0928 63.1376,-87.8955 78.0719,-70.8851"/>
<polygon fill="#000000" stroke="#000000" points="80.9424,-72.9206 84.9098,-63.0967 75.682,-68.3023 80.9424,-72.9206"/>
<text text-anchor="middle" x="57.5157" y="-101.499" font-family="Times,serif" font-size="14.00" fill="#000000">1</text>
</g>
<!-- node5 -->
<g id="node5" class="node">
<title>node5</title>
<ellipse fill="none" stroke="#000000" cx="176.0393" cy="-263.299" rx="18" ry="18"/>
<text text-anchor="middle" x="176.0393" y="-259.099" font-family="Times,serif" font-size="14.00" fill="#000000">E</text>
</g>
<!-- node2&#45;&gt;node5 -->
<g id="edge2" class="edge">
<title>node2-&gt;node5</title>
<path fill="none" stroke="#000000" d="M112.2586,-220.5179C123.627,-228.1433 139.3733,-238.7051 152.3755,-247.4264"/>
<polygon fill="#000000" stroke="#000000" points="150.5965,-250.4476 160.851,-253.1114 154.4959,-244.6342 150.5965,-250.4476"/>
<text text-anchor="middle" x="136.5314" y="-242.499" font-family="Times,serif" font-size="14.00" fill="#000000">a</text>
</g>
<!-- node6 -->
<g id="node6" class="node">
<title>node6</title>
<ellipse fill="none" stroke="#000000" cx="176.0393" cy="-156.299" rx="18" ry="18"/>
<text text-anchor="middle" x="176.0393" y="-152.099" font-family="Times,serif" font-size="14.00" fill="#000000">F</text>
</g>
<!-- node3&#45;&gt;node6 -->
<g id="edge5" class="edge">
<title>node3-&gt;node6</title>
<path fill="none" stroke="#000000" d="M114.9535,-143.1565C124.753,-145.2649 137.1076,-147.9229 148.1376,-150.296"/>
<polygon fill="#000000" stroke="#000000" points="147.6679,-153.7749 158.1803,-152.4567 149.1402,-146.9315 147.6679,-153.7749"/>
<text text-anchor="middle" x="136.5314" y="-153.499" font-family="Times,serif" font-size="14.00" fill="#000000">0</text>
</g>
<!-- node7 -->
<g id="node7" class="node">
<title>node7</title>
<ellipse fill="none" stroke="#000000" cx="176.0393" cy="-49.299" rx="18.0157" ry="18.0157"/>
<text text-anchor="middle" x="176.0393" y="-45.099" font-family="Times,serif" font-size="14.00" fill="#000000">G</text>
</g>
<!-- node4&#45;&gt;node7 -->
<g id="edge8" class="edge">
<title>node4-&gt;node7</title>
<path fill="none" stroke="#000000" d="M115.35,-49.299C124.9239,-49.299 136.8538,-49.299 147.5965,-49.299"/>
<polygon fill="#000000" stroke="#000000" points="147.8123,-52.7991 157.8123,-49.299 147.8122,-45.7991 147.8123,-52.7991"/>
<text text-anchor="middle" x="136.5314" y="-53.499" font-family="Times,serif" font-size="14.00" fill="#000000">1</text>
</g>
<!-- node8 -->
<g id="node8" class="node">
<title>node8</title>
<ellipse fill="none" stroke="#000000" cx="255.055" cy="-129.299" rx="18.0157" ry="18.0157"/>
<text text-anchor="middle" x="255.055" y="-125.099" font-family="Times,serif" font-size="14.00" fill="#000000">H</text>
</g>
<!-- node5&#45;&gt;node8 -->
<g id="edge3" class="edge">
<title>node5-&gt;node8</title>
<path fill="none" stroke="#000000" d="M190.8494,-252.7731C200.0132,-245.6218 211.4402,-235.4595 219.0471,-224.299 233.1743,-203.5723 242.7176,-176.5571 248.4103,-156.6362"/>
<polygon fill="#000000" stroke="#000000" points="251.8014,-157.5038 251.0401,-146.9364 245.0453,-155.6721 251.8014,-157.5038"/>
<text text-anchor="middle" x="215.5471" y="-236.499" font-family="Times,serif" font-size="14.00" fill="#000000">a</text>
</g>
<!-- node6&#45;&gt;node8 -->
<g id="edge6" class="edge">
<title>node6-&gt;node8</title>
<path fill="none" stroke="#000000" d="M193.1845,-150.4404C203.4353,-146.9376 216.681,-142.4115 228.285,-138.4464"/>
<polygon fill="#000000" stroke="#000000" points="229.6122,-141.6916 237.9432,-135.1461 227.3487,-135.0677 229.6122,-141.6916"/>
<text text-anchor="middle" x="215.5471" y="-148.499" font-family="Times,serif" font-size="14.00" fill="#000000">0</text>
</g>
<!-- node7&#45;&gt;node8 -->
<g id="edge9" class="edge">
<title>node7-&gt;node8</title>
<path fill="none" stroke="#000000" d="M192.8307,-55.9135C201.3533,-59.8422 211.4758,-65.442 219.0471,-72.499 228.5597,-81.3652 236.6106,-93.2676 242.6712,-103.8862"/>
<polygon fill="#000000" stroke="#000000" points="239.6413,-105.6416 247.4716,-112.7787 245.8011,-102.3164 239.6413,-105.6416"/>
<text text-anchor="middle" x="215.5471" y="-77.499" font-family="Times,serif" font-size="14.00" fill="#000000">1</text>
</g>
<!-- node8&#45;&gt;node2 -->
<g id="edge10" class="edge">
<title>node8-&gt;node2</title>
<path fill="none" stroke="#000000" d="M242.5394,-142.8215C235.8261,-149.8095 227.2632,-158.313 219.0471,-165.299 208.6165,-174.1679 206.3891,-177.3718 194.0471,-183.299 171.8695,-193.9496 144.7593,-201.0492 124.8392,-205.2836"/>
<polygon fill="#000000" stroke="#000000" points="123.9777,-201.8867 114.866,-207.293 125.3603,-208.7488 123.9777,-201.8867"/>
<text text-anchor="middle" x="176.0393" y="-201.499" font-family="Times,serif" font-size="14.00" fill="#000000">a</text>
</g>
<!-- node8&#45;&gt;node3 -->
<g id="edge11" class="edge">
<title>node8-&gt;node3</title>
<path fill="none" stroke="#000000" d="M238.1592,-122.4922C218.7467,-115.5694 185.9709,-106.6327 158.0314,-112.499 145.6359,-115.1015 132.6843,-120.3798 121.9194,-125.5692"/>
<polygon fill="#000000" stroke="#000000" points="120.0626,-122.5864 112.7267,-130.2306 123.2285,-128.8296 120.0626,-122.5864"/>
<text text-anchor="middle" x="176.0393" y="-117.499" font-family="Times,serif" font-size="14.00" fill="#000000">0</text>
</g>
<!-- node8&#45;&gt;node4 -->
<g id="edge12" class="edge">
<title>node8-&gt;node4</title>
<path fill="none" stroke="#000000" d="M252.2657,-111.416C246.7859,-83.1385 231.6873,-28.9125 194.0471,-5.499 168.833,10.1851 137.0501,-11.0716 116.876,-29.0774"/>
<polygon fill="#000000" stroke="#000000" points="114.408,-26.5934 109.4983,-35.9819 119.1912,-31.7043 114.408,-26.5934"/>
<text text-anchor="middle" x="176.0393" y="-10.499" font-family="Times,serif" font-size="14.00" fill="#000000">1</text>
</g>
</g>
</svg>