<?xml version="1.0" encoding="UTF-8" standalone="no"?><!DOCTYPE svg PUBLIC "-//W3C//DTD SVG 1.1//EN" "http://www.w3.org/Graphics/SVG/1.1/DTD/svg11.dtd"><!-- Generated by graphviz version 2.40.1 (20161225.0304)
 --><!-- Title: G Pages: 1 --><svg xmlns="http://www.w3.org/2000/svg" xmlns:xlink="http://www.w3.org/1999/xlink" width="446pt" height="162pt" viewBox="0.00 0.00 446.28 161.81">
<g id="graph0" class="graph" transform="scale(1 1) rotate(0) translate(4 157.8079)">
<title>G</title>
<polygon fill="#ffffff" stroke="transparent" points="-4,4 -4,-157.8079 442.2775,-157.8079 442.2775,4 -4,4"/>
<!-- node0 -->
<g id="node1" class="node">
<title>node0</title>
<ellipse fill="none" stroke="#000000" cx="18.0079" cy="-62" rx="18.0157" ry="18.0157"/>
<text text-anchor="middle" x="18.0079" y="-57.8" font-family="Times,serif" font-size="14.00" fill="#000000">A</text>
</g>
<!-- node1 -->
<g id="node2" class="node">
<title>node1</title>
<ellipse fill="none" stroke="#000000" cx="97.0157" cy="-106" rx="18" ry="18"/>
<text text-anchor="middle" x="97.0157" y="-101.8" font-family="Times,serif" font-size="14.00" fill="#000000">B</text>
</g>
<!-- node0&#45;&gt;node1 -->
<g id="edge1" class="edge">
<title>node0-&gt;node1</title>
<path fill="none" stroke="#000000" d="M33.9963,-70.9041C44.9194,-76.9872 59.614,-85.1708 72.0659,-92.1053"/>
<polygon fill="#000000" stroke="#000000" points="70.6116,-95.3015 81.0511,-97.1092 74.0174,-89.1859 70.6116,-95.3015"/>
<text text-anchor="middle" x="57.5157" y="-89.2" font-family="Times,serif" font-size="14.00" fill="#000000">a</text>
</g>
<!-- node2 -->
<g id="node3" class="node">
<title>node2</title>
<ellipse fill="none" stroke="#000000" cx="97.0157" cy="-18" rx="18" ry="18"/>
<text text-anchor="middle" x="97.0157" y="-13.8" font-family="Times,serif" font-size="14.00" fill="#000000">C</text>
</g>
<!-- node0&#45;&gt;node2 -->
<g id="edge2" class="edge">
<title>node0-&gt;node2</title>
<path fill="none" stroke="#000000" d="M33.9963,-53.0959C44.9194,-47.0128 59.614,-38.8292 72.0659,-31.8947"/>
<polygon fill="#000000" stroke="#000000" points="74.0174,-34.8141 81.0511,-26.8908 70.6116,-28.6985 74.0174,-34.8141"/>
<text text-anchor="middle" x="57.5157" y="-46.2" font-family="Times,serif" font-size="14.00" fill="#000000">b</text>
</g>
<!-- node3 -->
<g id="node4" class="node">
<title>node3</title>
<ellipse fill="none" stroke="#000000" cx="176.0236" cy="-101" rx="18.0157" ry="18.0157"/>
<text text-anchor="middle" x="176.0236" y="-96.8" font-family="Times,serif" font-size="14.00" fill="#000000">D</text>
</g>
<!-- node1&#45;&gt;node3 -->
<g id="edge3" class="edge">
<title>node1-&gt;node3</title>
<path fill="none" stroke="#000000" d="M115.3403,-104.8403C124.9132,-104.2345 136.842,-103.4796 147.5836,-102.7998"/>
<polygon fill="#000000" stroke="#000000" points="148.0394,-106.2781 157.7984,-102.1534 147.5972,-99.292 148.0394,-106.2781"/>
<text text-anchor="middle" x="136.5157" y="-107.2" font-family="Times,serif" font-size="14.00" fill="#000000">b</text>
</g>
<!-- node2&#45;&gt;node2 -->
<g id="edge4" class="edge">
<title>node2-&gt;node2</title>
<path fill="none" stroke="#000000" d="M90.2821,-35.0373C88.9079,-44.8579 91.1524,-54 97.0157,-54 100.6803,-54 102.9312,-50.4289 103.7686,-45.3529"/>
<polygon fill="#000000" stroke="#000000" points="107.2681,-45.0307 103.7493,-35.0373 100.2682,-45.0439 107.2681,-45.0307"/>
<text text-anchor="middle" x="97.0157" y="-58.2" font-family="Times,serif" font-size="14.00" fill="#000000">b</text>
</g>
<!-- node4 -->
<g id="node5" class="node">
<title>node4</title>
<ellipse fill="none" stroke="#000000" cx="176.0236" cy="-43" rx="18" ry="18"/>
<text text-anchor="middle" x="176.0236" y="-38.8" font-family="Times,serif" font-size="14.00" fill="#000000">E</text>
</g>
<!-- node2&#45;&gt;node4 -->
<g id="edge5" class="edge">
<title>node2-&gt;node4</title>
<path fill="none" stroke="#000000" d="M114.5501,-23.5483C124.747,-26.7749 137.8074,-30.9075 149.2655,-34.5331"/>
<polygon fill="#000000" stroke="#000000" points="148.22,-37.8733 158.81,-37.5532 150.3318,-31.1994 148.22,-37.8733"/>
<text text-anchor="middle" x="136.5157" y="-36.2" font-family="Times,serif" font-size="14.00" fill="#000000">a</text>
</g>
<!-- node3&#45;&gt;node3 -->
<g id="edge6" class="edge">
<title>node3-&gt;node3</title>
<path fill="none" stroke="#000000" d="M169.29,-118.041C167.9158,-127.8638 170.1603,-137.0079 176.0236,-137.0079 179.6881,-137.0079 181.9391,-133.4359 182.7765,-128.3589"/>
<polygon fill="#000000" stroke="#000000" points="186.276,-128.0344 182.7572,-118.041 179.276,-128.0476 186.276,-128.0344"/>
<text text-anchor="middle" x="176.0236" y="-141.2079" font-family="Times,serif" font-size="14.00" fill="#000000">b</text>
</g>
<!-- node5 -->
<g id="node6" class="node">
<title>node5</title>
<ellipse fill="none" stroke="#000000" cx="254.246" cy="-70" rx="18" ry="18"/>
<text text-anchor="middle" x="254.246" y="-65.8" font-family="Times,serif" font-size="14.00" fill="#000000">F</text>
</g>
<!-- node3&#45;&gt;node5 -->
<g id="edge7" class="edge">
<title>node3-&gt;node5</title>
<path fill="none" stroke="#000000" d="M192.9967,-94.2735C203.1446,-90.2518 216.2573,-85.0552 227.7447,-80.5026"/>
<polygon fill="#000000" stroke="#000000" points="229.299,-83.6516 237.306,-76.7134 226.72,-77.144 229.299,-83.6516"/>
<text text-anchor="middle" x="215.1387" y="-90.2" font-family="Times,serif" font-size="14.00" fill="#000000">a</text>
</g>
<!-- node4&#45;&gt;node5 -->
<g id="edge8" class="edge">
<title>node4-&gt;node5</title>
<path fill="none" stroke="#000000" d="M193.8749,-47.0863C201.4686,-48.9909 210.3715,-51.4461 218.246,-54.2 221.6345,-55.3851 225.1502,-56.7501 228.5978,-58.1711"/>
<polygon fill="#000000" stroke="#000000" points="227.4035,-61.4677 237.9715,-62.2212 230.1799,-55.0419 227.4035,-61.4677"/>
<text text-anchor="middle" x="215.1387" y="-59.2" font-family="Times,serif" font-size="14.00" fill="#000000">a</text>
</g>
<!-- node6 -->
<g id="node7" class="node">
<title>node6</title>
<ellipse fill="none" stroke="#000000" cx="333.2539" cy="-70" rx="18.0157" ry="18.0157"/>
<text text-anchor="middle" x="333.2539" y="-65.8" font-family="Times,serif" font-size="14.00" fill="#000000">G</text>
</g>
<!-- node5&#45;&gt;node6 -->
<g id="edge9" class="edge">
<title>node5-&gt;node6</title>
<path fill="none" stroke="#000000" d="M272.5706,-70C282.1435,-70 294.0723,-70 304.814,-70"/>
<polygon fill="#000000" stroke="#000000" points="305.0287,-73.5001 315.0287,-70 305.0286,-66.5001 305.0287,-73.5001"/>
<text text-anchor="middle" x="293.746" y="-74.2" font-family="Times,serif" font-size="14.00" fill="#000000">b</text>
</g>
<!-- node7 -->
<g id="node8" class="node">
<title>node7</title>
<ellipse fill="none" stroke="#000000" cx="416.2696" cy="-70" rx="18.0143" ry="18.0143"/>
<ellipse fill="none" stroke="#000000" cx="416.2696" cy="-70" rx="22.0157" ry="22.0157"/>
<text text-anchor="middle" x="416.2696" y="-65.8" font-family="Times,serif" font-size="14.00" fill="#000000">H</text>
</g>
<!-- node6&#45;&gt;node7 -->
<g id="edge10" class="edge">
<title>node6-&gt;node7</title>
<path fill="none" stroke="#000000" d="M351.2671,-70C360.8074,-70 372.8168,-70 383.9091,-70"/>
<polygon fill="#000000" stroke="#000000" points="384.1524,-73.5001 394.1524,-70 384.1524,-66.5001 384.1524,-73.5001"/>
<text text-anchor="middle" x="372.7617" y="-74.2" font-family="Times,serif" font-size="14.00" fill="#000000">b</text>
</g>
</g>
</svg>