<?xml version="1.0" encoding="UTF-8" standalone="no"?><!DOCTYPE svg PUBLIC "-//W3C//DTD SVG 1.1//EN" "http://www.w3.org/Graphics/SVG/1.1/DTD/svg11.dtd"><!-- Generated by graphviz version 2.40.1 (20161225.0304)
 --><!-- Title: G Pages: 1 --><svg xmlns="http://www.w3.org/2000/svg" xmlns:xlink="http://www.w3.org/1999/xlink" width="367pt" height="157pt" viewBox="0.00 0.00 367.25 156.81">
<g id="graph0" class="graph" transform="scale(1 1) rotate(0) translate(4 152.8079)">
<title>G</title>
<polygon fill="#ffffff" stroke="transparent" points="-4,4 -4,-152.8079 363.246,-152.8079 363.246,4 -4,4"/>
<!-- node0 -->
<g id="node1" class="node">
<title>node0</title>
<ellipse fill="none" stroke="#000000" cx="18.0079" cy="-18.0079" rx="18.0157" ry="18.0157"/>
<text text-anchor="middle" x="18.0079" y="-13.8079" font-family="Times,serif" font-size="14.00" fill="#000000">A</text>
</g>
<!-- node1 -->
<g id="node2" class="node">
<title>node1</title>
<ellipse fill="none" stroke="#000000" cx="96.2303" cy="-80.0079" rx="18" ry="18"/>
<text text-anchor="middle" x="96.2303" y="-75.8079" font-family="Times,serif" font-size="14.00" fill="#000000">B</text>
</g>
<!-- node0&#45;&gt;node1 -->
<g id="edge1" class="edge">
<title>node0-&gt;node1</title>
<path fill="none" stroke="#000000" d="M32.3551,-29.3796C44.0431,-38.6437 60.7435,-51.8806 74.1367,-62.4962"/>
<polygon fill="#000000" stroke="#000000" points="71.9631,-65.2395 81.9741,-68.7082 76.3113,-59.7537 71.9631,-65.2395"/>
<text text-anchor="middle" x="57.123" y="-55.2079" font-family="Times,serif" font-size="14.00" fill="#000000">a</text>
</g>
<!-- node2 -->
<g id="node3" class="node">
<title>node2</title>
<ellipse fill="none" stroke="#000000" cx="341.246" cy="-47.0079" rx="18" ry="18"/>
<text text-anchor="middle" x="341.246" y="-42.8079" font-family="Times,serif" font-size="14.00" fill="#000000">C</text>
</g>
<!-- node0&#45;&gt;node2 -->
<g id="edge2" class="edge">
<title>node0-&gt;node2</title>
<path fill="none" stroke="#000000" d="M35.1998,-12.4118C50.9128,-7.7979 74.8837,-2.0079 96.2303,-2.0079 96.2303,-2.0079 96.2303,-2.0079 258.246,-2.0079 281.3424,-2.0079 304.159,-15.6409 320.0066,-27.8993"/>
<polygon fill="#000000" stroke="#000000" points="318.0931,-30.8557 328.0514,-34.4728 322.5224,-25.4351 318.0931,-30.8557"/>
<text text-anchor="middle" x="175.2382" y="-6.2079" font-family="Times,serif" font-size="14.00" fill="#000000">b</text>
</g>
<!-- node1&#45;&gt;node1 -->
<g id="edge4" class="edge">
<title>node1-&gt;node1</title>
<path fill="none" stroke="#000000" d="M89.4967,-97.0452C88.1225,-106.8658 90.367,-116.0079 96.2303,-116.0079 99.8949,-116.0079 102.1458,-112.4367 102.9832,-107.3608"/>
<polygon fill="#000000" stroke="#000000" points="106.4827,-107.0386 102.9639,-97.0452 99.4828,-107.0517 106.4827,-107.0386"/>
<text text-anchor="middle" x="96.2303" y="-120.2079" font-family="Times,serif" font-size="14.00" fill="#000000">a</text>
</g>
<!-- node3 -->
<g id="node4" class="node">
<title>node3</title>
<ellipse fill="none" stroke="#000000" cx="175.2382" cy="-97.0079" rx="18.0157" ry="18.0157"/>
<text text-anchor="middle" x="175.2382" y="-92.8079" font-family="Times,serif" font-size="14.00" fill="#000000">D</text>
</g>
<!-- node1&#45;&gt;node3 -->
<g id="edge3" class="edge">
<title>node1-&gt;node3</title>
<path fill="none" stroke="#000000" d="M111.7532,-89.7436C117.8899,-93.0544 125.1575,-96.3382 132.2303,-98.0079 136.8529,-99.0991 141.8328,-99.5865 146.7073,-99.7026"/>
<polygon fill="#000000" stroke="#000000" points="147.1172,-103.1939 157.0302,-99.4544 146.9489,-96.1959 147.1172,-103.1939"/>
<text text-anchor="middle" x="135.7303" y="-104.2079" font-family="Times,serif" font-size="14.00" fill="#000000">b</text>
</g>
<!-- node2&#45;&gt;node1 -->
<g id="edge5" class="edge">
<title>node2-&gt;node1</title>
<path fill="none" stroke="#000000" d="M323.2654,-48.5498C286.9836,-51.795 202.4816,-60.0315 132.2303,-72.0079 129.4849,-72.4759 126.633,-73.0159 123.7901,-73.5898"/>
<polygon fill="#000000" stroke="#000000" points="122.7808,-70.2267 113.7394,-75.7496 124.2515,-77.0705 122.7808,-70.2267"/>
<text text-anchor="middle" x="214.746" y="-65.2079" font-family="Times,serif" font-size="14.00" fill="#000000">a</text>
</g>
<!-- node2&#45;&gt;node2 -->
<g id="edge6" class="edge">
<title>node2-&gt;node2</title>
<path fill="none" stroke="#000000" d="M334.5124,-64.0452C333.1382,-73.8658 335.3827,-83.0079 341.246,-83.0079 344.9106,-83.0079 347.1616,-79.4367 347.999,-74.3608"/>
<polygon fill="#000000" stroke="#000000" points="351.4985,-74.0386 347.9796,-64.0452 344.4985,-74.0517 351.4985,-74.0386"/>
<text text-anchor="middle" x="341.246" y="-87.2079" font-family="Times,serif" font-size="14.00" fill="#000000">b</text>
</g>
<!-- node3&#45;&gt;node1 -->
<g id="edge7" class="edge">
<title>node3-&gt;node1</title>
<path fill="none" stroke="#000000" d="M160.1823,-86.518C153.9872,-82.8068 146.5548,-79.0888 139.2303,-77.2079 134.4117,-75.9704 129.195,-75.5648 124.1121,-75.6424"/>
<polygon fill="#000000" stroke="#000000" points="123.7597,-72.1586 114.0372,-76.3684 124.263,-79.1405 123.7597,-72.1586"/>
<text text-anchor="middle" x="135.7303" y="-82.2079" font-family="Times,serif" font-size="14.00" fill="#000000">a</text>
</g>
<!-- node4 -->
<g id="node5" class="node">
<title>node4</title>
<ellipse fill="none" stroke="#000000" cx="258.246" cy="-97.0079" rx="18" ry="18"/>
<ellipse fill="none" stroke="#000000" cx="258.246" cy="-97.0079" rx="22" ry="22"/>
<text text-anchor="middle" x="258.246" y="-92.8079" font-family="Times,serif" font-size="14.00" fill="#000000">E</text>
</g>
<!-- node3&#45;&gt;node4 -->
<g id="edge8" class="edge">
<title>node3-&gt;node4</title>
<path fill="none" stroke="#000000" d="M193.2496,-97.0079C202.7891,-97.0079 214.7973,-97.0079 225.8886,-97.0079"/>
<polygon fill="#000000" stroke="#000000" points="226.1309,-100.508 236.1309,-97.0079 226.1309,-93.508 226.1309,-100.508"/>
<text text-anchor="middle" x="214.746" y="-101.2079" font-family="Times,serif" font-size="14.00" fill="#000000">b</text>
</g>
<!-- node4&#45;&gt;node1 -->
<g id="edge9" class="edge">
<title>node4-&gt;node1</title>
<path fill="none" stroke="#000000" d="M239.1619,-108.2591C232.6813,-111.7436 225.2943,-115.3589 218.246,-118.0079 182.4389,-131.4652 166.0742,-138.8359 132.2303,-121.0079 124.4518,-116.9104 117.5816,-110.3948 111.9835,-103.7532"/>
<polygon fill="#000000" stroke="#000000" points="114.4684,-101.2426 105.6003,-95.4455 108.9176,-105.5076 114.4684,-101.2426"/>
<text text-anchor="middle" x="175.2382" y="-136.2079" font-family="Times,serif" font-size="14.00" fill="#000000">a</text>
</g>
<!-- node4&#45;&gt;node2 -->
<g id="edge10" class="edge">
<title>node4-&gt;node2</title>
<path fill="none" stroke="#000000" d="M277.4965,-85.4112C289.2884,-78.3076 304.4828,-69.1544 317.0798,-61.5658"/>
<polygon fill="#000000" stroke="#000000" points="318.9476,-64.5267 325.7074,-56.3685 315.3355,-58.5306 318.9476,-64.5267"/>
<text text-anchor="middle" x="301.746" y="-76.2079" font-family="Times,serif" font-size="14.00" fill="#000000">b</text>
</g>
</g>
</svg>