<?xml version="1.0" encoding="UTF-8" standalone="no"?><!DOCTYPE svg PUBLIC "-//W3C//DTD SVG 1.1//EN" "http://www.w3.org/Graphics/SVG/1.1/DTD/svg11.dtd"><!-- Generated by graphviz version 2.40.1 (20161225.0304)
 --><!-- Title: G Pages: 1 --><svg xmlns="http://www.w3.org/2000/svg" xmlns:xlink="http://www.w3.org/1999/xlink" width="584pt" height="677pt" viewBox="0.00 0.00 583.78 677.40">
<g id="graph0" class="graph" transform="scale(1 1) rotate(0) translate(4 673.4)">
<title>G</title>
<polygon fill="#ffffff" stroke="transparent" points="-4,4 -4,-673.4 579.7826,-673.4 579.7826,4 -4,4"/>
<!-- node1 -->
<g id="node1" class="node">
<title>node1</title>
<polygon fill="none" stroke="#000000" points="0,-.5 0,-74.9 69.7826,-74.9 69.7826,-.5 0,-.5"/>
<text text-anchor="middle" x="11.5" y="-33.5" font-family="Times,serif" font-size="14.00" fill="#000000">1</text>
<polyline fill="none" stroke="#000000" points="23,-.5 23,-74.9 "/>
<text text-anchor="middle" x="34.8913" y="-58.3" font-family="Times,serif" font-size="14.00" fill="#000000">F</text>
<polyline fill="none" stroke="#000000" points="23,-50.1 46.7826,-50.1 "/>
<text text-anchor="middle" x="34.8913" y="-33.5" font-family="Times,serif" font-size="14.00" fill="#000000">a</text>
<polyline fill="none" stroke="#000000" points="23,-25.3 46.7826,-25.3 "/>
<text text-anchor="middle" x="34.8913" y="-8.7" font-family="Times,serif" font-size="14.00" fill="#000000">1</text>
<polyline fill="none" stroke="#000000" points="46.7826,-.5 46.7826,-74.9 "/>
<text text-anchor="middle" x="58.2826" y="-33.5" font-family="Times,serif" font-size="14.00" fill="#000000">1</text>
</g>
<!-- node2 -->
<g id="node2" class="node">
<title>node2</title>
<polygon fill="none" stroke="#000000" points="88,-.5 88,-74.9 157.7826,-74.9 157.7826,-.5 88,-.5"/>
<text text-anchor="middle" x="99.5" y="-33.5" font-family="Times,serif" font-size="14.00" fill="#000000">2</text>
<polyline fill="none" stroke="#000000" points="111,-.5 111,-74.9 "/>
<text text-anchor="middle" x="122.8913" y="-58.3" font-family="Times,serif" font-size="14.00" fill="#000000">F</text>
<polyline fill="none" stroke="#000000" points="111,-50.1 134.7826,-50.1 "/>
<text text-anchor="middle" x="122.8913" y="-33.5" font-family="Times,serif" font-size="14.00" fill="#000000">a</text>
<polyline fill="none" stroke="#000000" points="111,-25.3 134.7826,-25.3 "/>
<text text-anchor="middle" x="122.8913" y="-8.7" font-family="Times,serif" font-size="14.00" fill="#000000">2</text>
<polyline fill="none" stroke="#000000" points="134.7826,-.5 134.7826,-74.9 "/>
<text text-anchor="middle" x="146.2826" y="-33.5" font-family="Times,serif" font-size="14.00" fill="#000000">2</text>
</g>
<!-- node3 -->
<g id="node3" class="node">
<title>node3</title>
<polygon fill="none" stroke="#000000" points="66,-124.3 66,-173.9 135.7826,-173.9 135.7826,-124.3 66,-124.3"/>
<text text-anchor="middle" x="77.5" y="-144.9" font-family="Times,serif" font-size="14.00" fill="#000000">1</text>
<polyline fill="none" stroke="#000000" points="89,-124.3 89,-173.9 "/>
<text text-anchor="middle" x="100.8913" y="-157.3" font-family="Times,serif" font-size="14.00" fill="#000000">F</text>
<polyline fill="none" stroke="#000000" points="89,-149.1 112.7826,-149.1 "/>
<text text-anchor="middle" x="100.8913" y="-132.5" font-family="Times,serif" font-size="14.00" fill="#000000">.</text>
<polyline fill="none" stroke="#000000" points="112.7826,-124.3 112.7826,-173.9 "/>
<text text-anchor="middle" x="124.2826" y="-144.9" font-family="Times,serif" font-size="14.00" fill="#000000">2</text>
</g>
<!-- node3&#45;&gt;node1 -->
<g id="edge1" class="edge">
<title>node3-&gt;node1</title>
<path fill="none" stroke="#000000" d="M86.0796,-124.0997C79.096,-112.3122 70.532,-97.8573 62.4215,-84.1677"/>
<polygon fill="#000000" stroke="#000000" points="65.2868,-82.1373 57.1784,-75.3179 59.2644,-85.7053 65.2868,-82.1373"/>
</g>
<!-- node3&#45;&gt;node2 -->
<g id="edge2" class="edge">
<title>node3-&gt;node2</title>
<path fill="none" stroke="#000000" d="M105.8285,-124.0997C108.0899,-112.649 110.8484,-98.6811 113.4825,-85.3428"/>
<polygon fill="#000000" stroke="#000000" points="116.9584,-85.8065 115.4623,-75.3179 110.0911,-84.4503 116.9584,-85.8065"/>
</g>
<!-- node4 -->
<g id="node4" class="node">
<title>node4</title>
<polygon fill="none" stroke="#000000" points="154,-111.9 154,-186.3 223.7826,-186.3 223.7826,-111.9 154,-111.9"/>
<text text-anchor="middle" x="165.5" y="-144.9" font-family="Times,serif" font-size="14.00" fill="#000000">3</text>
<polyline fill="none" stroke="#000000" points="177,-111.9 177,-186.3 "/>
<text text-anchor="middle" x="188.8913" y="-169.7" font-family="Times,serif" font-size="14.00" fill="#000000">F</text>
<polyline fill="none" stroke="#000000" points="177,-161.5 200.7826,-161.5 "/>
<text text-anchor="middle" x="188.8913" y="-144.9" font-family="Times,serif" font-size="14.00" fill="#000000">a</text>
<polyline fill="none" stroke="#000000" points="177,-136.7 200.7826,-136.7 "/>
<text text-anchor="middle" x="188.8913" y="-120.1" font-family="Times,serif" font-size="14.00" fill="#000000">3</text>
<polyline fill="none" stroke="#000000" points="200.7826,-111.9 200.7826,-186.3 "/>
<text text-anchor="middle" x="212.2826" y="-144.9" font-family="Times,serif" font-size="14.00" fill="#000000">3</text>
</g>
<!-- node5 -->
<g id="node5" class="node">
<title>node5</title>
<polygon fill="none" stroke="#000000" points="154,-235.7 154,-285.3 223.7826,-285.3 223.7826,-235.7 154,-235.7"/>
<text text-anchor="middle" x="165.5" y="-256.3" font-family="Times,serif" font-size="14.00" fill="#000000">1</text>
<polyline fill="none" stroke="#000000" points="177,-235.7 177,-285.3 "/>
<text text-anchor="middle" x="188.8913" y="-268.7" font-family="Times,serif" font-size="14.00" fill="#000000">F</text>
<polyline fill="none" stroke="#000000" points="177,-260.5 200.7826,-260.5 "/>
<text text-anchor="middle" x="188.8913" y="-243.9" font-family="Times,serif" font-size="14.00" fill="#000000">.</text>
<polyline fill="none" stroke="#000000" points="200.7826,-235.7 200.7826,-285.3 "/>
<text text-anchor="middle" x="212.2826" y="-256.3" font-family="Times,serif" font-size="14.00" fill="#000000">3</text>
</g>
<!-- node5&#45;&gt;node3 -->
<g id="edge3" class="edge">
<title>node5-&gt;node3</title>
<path fill="none" stroke="#000000" d="M169.1424,-235.4997C156.6875,-219.733 140.4626,-199.1937 126.9573,-182.0972"/>
<polygon fill="#000000" stroke="#000000" points="129.5195,-179.6944 120.5743,-174.0169 124.0266,-184.0335 129.5195,-179.6944"/>
</g>
<!-- node5&#45;&gt;node4 -->
<g id="edge4" class="edge">
<title>node5-&gt;node4</title>
<path fill="none" stroke="#000000" d="M188.8913,-235.4997C188.8913,-224.049 188.8913,-210.0811 188.8913,-196.7428"/>
<polygon fill="#000000" stroke="#000000" points="192.3914,-196.7178 188.8913,-186.7179 185.3914,-196.7179 192.3914,-196.7178"/>
</g>
<!-- node6 -->
<g id="node6" class="node">
<title>node6</title>
<polygon fill="none" stroke="#000000" points="220,-.5 220,-74.9 289.7826,-74.9 289.7826,-.5 220,-.5"/>
<text text-anchor="middle" x="231.5" y="-33.5" font-family="Times,serif" font-size="14.00" fill="#000000">4</text>
<polyline fill="none" stroke="#000000" points="243,-.5 243,-74.9 "/>
<text text-anchor="middle" x="254.8913" y="-58.3" font-family="Times,serif" font-size="14.00" fill="#000000">F</text>
<polyline fill="none" stroke="#000000" points="243,-50.1 266.7826,-50.1 "/>
<text text-anchor="middle" x="254.8913" y="-33.5" font-family="Times,serif" font-size="14.00" fill="#000000">0</text>
<polyline fill="none" stroke="#000000" points="243,-25.3 266.7826,-25.3 "/>
<text text-anchor="middle" x="254.8913" y="-8.7" font-family="Times,serif" font-size="14.00" fill="#000000">4</text>
<polyline fill="none" stroke="#000000" points="266.7826,-.5 266.7826,-74.9 "/>
<text text-anchor="middle" x="278.2826" y="-33.5" font-family="Times,serif" font-size="14.00" fill="#000000">4</text>
</g>
<!-- node7 -->
<g id="node7" class="node">
<title>node7</title>
<polygon fill="none" stroke="#000000" points="308,-.5 308,-74.9 377.7826,-74.9 377.7826,-.5 308,-.5"/>
<text text-anchor="middle" x="319.5" y="-33.5" font-family="Times,serif" font-size="14.00" fill="#000000">5</text>
<polyline fill="none" stroke="#000000" points="331,-.5 331,-74.9 "/>
<text text-anchor="middle" x="342.8913" y="-58.3" font-family="Times,serif" font-size="14.00" fill="#000000">F</text>
<polyline fill="none" stroke="#000000" points="331,-50.1 354.7826,-50.1 "/>
<text text-anchor="middle" x="342.8913" y="-33.5" font-family="Times,serif" font-size="14.00" fill="#000000">0</text>
<polyline fill="none" stroke="#000000" points="331,-25.3 354.7826,-25.3 "/>
<text text-anchor="middle" x="342.8913" y="-8.7" font-family="Times,serif" font-size="14.00" fill="#000000">5</text>
<polyline fill="none" stroke="#000000" points="354.7826,-.5 354.7826,-74.9 "/>
<text text-anchor="middle" x="366.2826" y="-33.5" font-family="Times,serif" font-size="14.00" fill="#000000">5</text>
</g>
<!-- node8 -->
<g id="node8" class="node">
<title>node8</title>
<polygon fill="none" stroke="#000000" points="242,-124.3 242,-173.9 311.7826,-173.9 311.7826,-124.3 242,-124.3"/>
<text text-anchor="middle" x="253.5" y="-144.9" font-family="Times,serif" font-size="14.00" fill="#000000">4</text>
<polyline fill="none" stroke="#000000" points="265,-124.3 265,-173.9 "/>
<text text-anchor="middle" x="276.8913" y="-157.3" font-family="Times,serif" font-size="14.00" fill="#000000">F</text>
<polyline fill="none" stroke="#000000" points="265,-149.1 288.7826,-149.1 "/>
<text text-anchor="middle" x="276.8913" y="-132.5" font-family="Times,serif" font-size="14.00" fill="#000000">.</text>
<polyline fill="none" stroke="#000000" points="288.7826,-124.3 288.7826,-173.9 "/>
<text text-anchor="middle" x="300.2826" y="-144.9" font-family="Times,serif" font-size="14.00" fill="#000000">5</text>
</g>
<!-- node8&#45;&gt;node6 -->
<g id="edge5" class="edge">
<title>node8-&gt;node6</title>
<path fill="none" stroke="#000000" d="M271.9541,-124.0997C269.6927,-112.649 266.9342,-98.6811 264.3001,-85.3428"/>
<polygon fill="#000000" stroke="#000000" points="267.6915,-84.4503 262.3203,-75.3179 260.8242,-85.8065 267.6915,-84.4503"/>
</g>
<!-- node8&#45;&gt;node7 -->
<g id="edge6" class="edge">
<title>node8-&gt;node7</title>
<path fill="none" stroke="#000000" d="M291.703,-124.0997C298.6866,-112.3122 307.2506,-97.8573 315.3611,-84.1677"/>
<polygon fill="#000000" stroke="#000000" points="318.5182,-85.7053 320.6042,-75.3179 312.4958,-82.1373 318.5182,-85.7053"/>
</g>
<!-- node9 -->
<g id="node9" class="node">
<title>node9</title>
<polygon fill="none" stroke="#000000" points="330,-111.9 330,-186.3 399.7826,-186.3 399.7826,-111.9 330,-111.9"/>
<text text-anchor="middle" x="341.5" y="-144.9" font-family="Times,serif" font-size="14.00" fill="#000000">6</text>
<polyline fill="none" stroke="#000000" points="353,-111.9 353,-186.3 "/>
<text text-anchor="middle" x="364.8913" y="-169.7" font-family="Times,serif" font-size="14.00" fill="#000000">F</text>
<polyline fill="none" stroke="#000000" points="353,-161.5 376.7826,-161.5 "/>
<text text-anchor="middle" x="364.8913" y="-144.9" font-family="Times,serif" font-size="14.00" fill="#000000">0</text>
<polyline fill="none" stroke="#000000" points="353,-136.7 376.7826,-136.7 "/>
<text text-anchor="middle" x="364.8913" y="-120.1" font-family="Times,serif" font-size="14.00" fill="#000000">6</text>
<polyline fill="none" stroke="#000000" points="376.7826,-111.9 376.7826,-186.3 "/>
<text text-anchor="middle" x="388.2826" y="-144.9" font-family="Times,serif" font-size="14.00" fill="#000000">6</text>
</g>
<!-- node10 -->
<g id="node10" class="node">
<title>node10</title>
<polygon fill="none" stroke="#000000" points="278,-235.7 278,-285.3 347.7826,-285.3 347.7826,-235.7 278,-235.7"/>
<text text-anchor="middle" x="289.5" y="-256.3" font-family="Times,serif" font-size="14.00" fill="#000000">4</text>
<polyline fill="none" stroke="#000000" points="301,-235.7 301,-285.3 "/>
<text text-anchor="middle" x="312.8913" y="-268.7" font-family="Times,serif" font-size="14.00" fill="#000000">F</text>
<polyline fill="none" stroke="#000000" points="301,-260.5 324.7826,-260.5 "/>
<text text-anchor="middle" x="312.8913" y="-243.9" font-family="Times,serif" font-size="14.00" fill="#000000">.</text>
<polyline fill="none" stroke="#000000" points="324.7826,-235.7 324.7826,-285.3 "/>
<text text-anchor="middle" x="336.2826" y="-256.3" font-family="Times,serif" font-size="14.00" fill="#000000">6</text>
</g>
<!-- node10&#45;&gt;node8 -->
<g id="edge7" class="edge">
<title>node10-&gt;node8</title>
<path fill="none" stroke="#000000" d="M304.8122,-235.4997C299.9023,-220.3063 293.5603,-200.6811 288.1617,-183.9755"/>
<polygon fill="#000000" stroke="#000000" points="291.3489,-182.4561 284.9434,-174.0169 284.6881,-184.6087 291.3489,-182.4561"/>
</g>
<!-- node10&#45;&gt;node9 -->
<g id="edge8" class="edge">
<title>node10-&gt;node9</title>
<path fill="none" stroke="#000000" d="M324.5611,-235.4997C330.0109,-223.8245 336.6823,-209.5324 343.0182,-195.959"/>
<polygon fill="#000000" stroke="#000000" points="346.2735,-197.2597 347.3318,-186.7179 339.9305,-194.2989 346.2735,-197.2597"/>
</g>
<!-- node11 -->
<g id="node11" class="node">
<title>node11</title>
<polygon fill="none" stroke="#000000" points="261.6697,-334.7 261.6697,-384.3 364.1129,-384.3 364.1129,-334.7 261.6697,-334.7"/>
<text text-anchor="middle" x="278.4197" y="-355.3" font-family="Times,serif" font-size="14.00" fill="#000000">1,4</text>
<polyline fill="none" stroke="#000000" points="295.1697,-334.7 295.1697,-384.3 "/>
<text text-anchor="middle" x="312.8913" y="-367.7" font-family="Times,serif" font-size="14.00" fill="#000000">F</text>
<polyline fill="none" stroke="#000000" points="295.1697,-359.5 330.6129,-359.5 "/>
<text text-anchor="middle" x="312.8913" y="-342.9" font-family="Times,serif" font-size="14.00" fill="#000000">OR</text>
<polyline fill="none" stroke="#000000" points="330.6129,-334.7 330.6129,-384.3 "/>
<text text-anchor="middle" x="347.3629" y="-355.3" font-family="Times,serif" font-size="14.00" fill="#000000">3,6</text>
</g>
<!-- node11&#45;&gt;node5 -->
<g id="edge9" class="edge">
<title>node11-&gt;node5</title>
<path fill="none" stroke="#000000" d="M281.6009,-334.5181C265.4468,-321.6209 245.5716,-305.7528 228.3721,-292.021"/>
<polygon fill="#000000" stroke="#000000" points="230.1703,-288.978 220.1717,-285.4739 225.8028,-294.4484 230.1703,-288.978"/>
</g>
<!-- node11&#45;&gt;node10 -->
<g id="edge10" class="edge">
<title>node11-&gt;node10</title>
<path fill="none" stroke="#000000" d="M312.8913,-334.5181C312.8913,-322.7934 312.8913,-308.6134 312.8913,-295.8152"/>
<polygon fill="#000000" stroke="#000000" points="316.3914,-295.4739 312.8913,-285.4739 309.3914,-295.4739 316.3914,-295.4739"/>
</g>
<!-- node12 -->
<g id="node12" class="node">
<title>node12</title>
<polygon fill="none" stroke="#000000" points="418,-111.9 418,-186.3 487.7826,-186.3 487.7826,-111.9 418,-111.9"/>
<text text-anchor="middle" x="429.5" y="-144.9" font-family="Times,serif" font-size="14.00" fill="#000000">7</text>
<polyline fill="none" stroke="#000000" points="441,-111.9 441,-186.3 "/>
<text text-anchor="middle" x="452.8913" y="-169.7" font-family="Times,serif" font-size="14.00" fill="#000000">F</text>
<polyline fill="none" stroke="#000000" points="441,-161.5 464.7826,-161.5 "/>
<text text-anchor="middle" x="452.8913" y="-144.9" font-family="Times,serif" font-size="14.00" fill="#000000">1</text>
<polyline fill="none" stroke="#000000" points="441,-136.7 464.7826,-136.7 "/>
<text text-anchor="middle" x="452.8913" y="-120.1" font-family="Times,serif" font-size="14.00" fill="#000000">7</text>
<polyline fill="none" stroke="#000000" points="464.7826,-111.9 464.7826,-186.3 "/>
<text text-anchor="middle" x="476.2826" y="-144.9" font-family="Times,serif" font-size="14.00" fill="#000000">7</text>
</g>
<!-- node13 -->
<g id="node13" class="node">
<title>node13</title>
<polygon fill="none" stroke="#000000" points="506,-111.9 506,-186.3 575.7826,-186.3 575.7826,-111.9 506,-111.9"/>
<text text-anchor="middle" x="517.5" y="-144.9" font-family="Times,serif" font-size="14.00" fill="#000000">8</text>
<polyline fill="none" stroke="#000000" points="529,-111.9 529,-186.3 "/>
<text text-anchor="middle" x="540.8913" y="-169.7" font-family="Times,serif" font-size="14.00" fill="#000000">F</text>
<polyline fill="none" stroke="#000000" points="529,-161.5 552.7826,-161.5 "/>
<text text-anchor="middle" x="540.8913" y="-144.9" font-family="Times,serif" font-size="14.00" fill="#000000">1</text>
<polyline fill="none" stroke="#000000" points="529,-136.7 552.7826,-136.7 "/>
<text text-anchor="middle" x="540.8913" y="-120.1" font-family="Times,serif" font-size="14.00" fill="#000000">8</text>
<polyline fill="none" stroke="#000000" points="552.7826,-111.9 552.7826,-186.3 "/>
<text text-anchor="middle" x="564.2826" y="-144.9" font-family="Times,serif" font-size="14.00" fill="#000000">8</text>
</g>
<!-- node14 -->
<g id="node14" class="node">
<title>node14</title>
<polygon fill="none" stroke="#000000" points="418,-235.7 418,-285.3 487.7826,-285.3 487.7826,-235.7 418,-235.7"/>
<text text-anchor="middle" x="429.5" y="-256.3" font-family="Times,serif" font-size="14.00" fill="#000000">7</text>
<polyline fill="none" stroke="#000000" points="441,-235.7 441,-285.3 "/>
<text text-anchor="middle" x="452.8913" y="-268.7" font-family="Times,serif" font-size="14.00" fill="#000000">F</text>
<polyline fill="none" stroke="#000000" points="441,-260.5 464.7826,-260.5 "/>
<text text-anchor="middle" x="452.8913" y="-243.9" font-family="Times,serif" font-size="14.00" fill="#000000">.</text>
<polyline fill="none" stroke="#000000" points="464.7826,-235.7 464.7826,-285.3 "/>
<text text-anchor="middle" x="476.2826" y="-256.3" font-family="Times,serif" font-size="14.00" fill="#000000">8</text>
</g>
<!-- node14&#45;&gt;node12 -->
<g id="edge11" class="edge">
<title>node14-&gt;node12</title>
<path fill="none" stroke="#000000" d="M452.8913,-235.4997C452.8913,-224.049 452.8913,-210.0811 452.8913,-196.7428"/>
<polygon fill="#000000" stroke="#000000" points="456.3914,-196.7178 452.8913,-186.7179 449.3914,-196.7179 456.3914,-196.7178"/>
</g>
<!-- node14&#45;&gt;node13 -->
<g id="edge12" class="edge">
<title>node14-&gt;node13</title>
<path fill="none" stroke="#000000" d="M472.6402,-235.4997C482.129,-223.4877 493.8061,-208.7056 504.8016,-194.7862"/>
<polygon fill="#000000" stroke="#000000" points="507.7229,-196.7345 511.1752,-186.7179 502.23,-192.3954 507.7229,-196.7345"/>
</g>
<!-- node15 -->
<g id="node15" class="node">
<title>node15</title>
<polygon fill="none" stroke="#000000" points="506,-223.3 506,-297.7 575.7826,-297.7 575.7826,-223.3 506,-223.3"/>
<text text-anchor="middle" x="517.5" y="-256.3" font-family="Times,serif" font-size="14.00" fill="#000000">9</text>
<polyline fill="none" stroke="#000000" points="529,-223.3 529,-297.7 "/>
<text text-anchor="middle" x="540.8913" y="-281.1" font-family="Times,serif" font-size="14.00" fill="#000000">F</text>
<polyline fill="none" stroke="#000000" points="529,-272.9 552.7826,-272.9 "/>
<text text-anchor="middle" x="540.8913" y="-256.3" font-family="Times,serif" font-size="14.00" fill="#000000">1</text>
<polyline fill="none" stroke="#000000" points="529,-248.1 552.7826,-248.1 "/>
<text text-anchor="middle" x="540.8913" y="-231.5" font-family="Times,serif" font-size="14.00" fill="#000000">9</text>
<polyline fill="none" stroke="#000000" points="552.7826,-223.3 552.7826,-297.7 "/>
<text text-anchor="middle" x="564.2826" y="-256.3" font-family="Times,serif" font-size="14.00" fill="#000000">9</text>
</g>
<!-- node16 -->
<g id="node16" class="node">
<title>node16</title>
<polygon fill="none" stroke="#000000" points="418,-334.7 418,-384.3 487.7826,-384.3 487.7826,-334.7 418,-334.7"/>
<text text-anchor="middle" x="429.5" y="-355.3" font-family="Times,serif" font-size="14.00" fill="#000000">7</text>
<polyline fill="none" stroke="#000000" points="441,-334.7 441,-384.3 "/>
<text text-anchor="middle" x="452.8913" y="-367.7" font-family="Times,serif" font-size="14.00" fill="#000000">F</text>
<polyline fill="none" stroke="#000000" points="441,-359.5 464.7826,-359.5 "/>
<text text-anchor="middle" x="452.8913" y="-342.9" font-family="Times,serif" font-size="14.00" fill="#000000">.</text>
<polyline fill="none" stroke="#000000" points="464.7826,-334.7 464.7826,-384.3 "/>
<text text-anchor="middle" x="476.2826" y="-355.3" font-family="Times,serif" font-size="14.00" fill="#000000">9</text>
</g>
<!-- node16&#45;&gt;node14 -->
<g id="edge13" class="edge">
<title>node16-&gt;node14</title>
<path fill="none" stroke="#000000" d="M452.8913,-334.5181C452.8913,-322.7934 452.8913,-308.6134 452.8913,-295.8152"/>
<polygon fill="#000000" stroke="#000000" points="456.3914,-295.4739 452.8913,-285.4739 449.3914,-295.4739 456.3914,-295.4739"/>
</g>
<!-- node16&#45;&gt;node15 -->
<g id="edge14" class="edge">
<title>node16-&gt;node15</title>
<path fill="none" stroke="#000000" d="M475.0974,-334.5181C482.9688,-325.6628 492.0851,-315.407 500.9769,-305.4036"/>
<polygon fill="#000000" stroke="#000000" points="503.6808,-307.6301 507.7085,-297.8307 498.4489,-302.9795 503.6808,-307.6301"/>
</g>
<!-- node17 -->
<g id="node17" class="node">
<title>node17</title>
<polygon fill="none" stroke="#000000" points="339.1697,-421.3 339.1697,-470.9 462.6129,-470.9 462.6129,-421.3 339.1697,-421.3"/>
<text text-anchor="middle" x="361.1697" y="-441.9" font-family="Times,serif" font-size="14.00" fill="#000000">1,4,7</text>
<polyline fill="none" stroke="#000000" points="383.1697,-421.3 383.1697,-470.9 "/>
<text text-anchor="middle" x="400.8913" y="-454.3" font-family="Times,serif" font-size="14.00" fill="#000000">F</text>
<polyline fill="none" stroke="#000000" points="383.1697,-446.1 418.6129,-446.1 "/>
<text text-anchor="middle" x="400.8913" y="-429.5" font-family="Times,serif" font-size="14.00" fill="#000000">OR</text>
<polyline fill="none" stroke="#000000" points="418.6129,-421.3 418.6129,-470.9 "/>
<text text-anchor="middle" x="440.6129" y="-441.9" font-family="Times,serif" font-size="14.00" fill="#000000">3,6,9</text>
</g>
<!-- node17&#45;&gt;node11 -->
<g id="edge15" class="edge">
<title>node17-&gt;node11</title>
<path fill="none" stroke="#000000" d="M375.4381,-421.0517C366.1345,-411.8961 355.4768,-401.408 345.6266,-391.7145"/>
<polygon fill="#000000" stroke="#000000" points="347.8699,-389.0115 338.2873,-384.492 342.9599,-394.0008 347.8699,-389.0115"/>
</g>
<!-- node17&#45;&gt;node16 -->
<g id="edge16" class="edge">
<title>node17-&gt;node16</title>
<path fill="none" stroke="#000000" d="M415.9319,-421.0517C421.1599,-412.3449 427.1117,-402.433 432.6885,-393.1455"/>
<polygon fill="#000000" stroke="#000000" points="435.7372,-394.867 437.8845,-384.492 429.736,-391.2634 435.7372,-394.867"/>
</g>
<!-- node18 -->
<g id="node18" class="node">
<title>node18</title>
<polygon fill="none" stroke="#000000" points="344.944,-520.3 344.944,-569.9 456.8386,-569.9 456.8386,-520.3 344.944,-520.3"/>
<text text-anchor="middle" x="366.944" y="-540.9" font-family="Times,serif" font-size="14.00" fill="#000000">1,4,7</text>
<polyline fill="none" stroke="#000000" points="388.944,-520.3 388.944,-569.9 "/>
<text text-anchor="middle" x="400.8913" y="-553.3" font-family="Times,serif" font-size="14.00" fill="#000000">F</text>
<polyline fill="none" stroke="#000000" points="388.944,-545.1 412.8386,-545.1 "/>
<text text-anchor="middle" x="400.8913" y="-528.5" font-family="Times,serif" font-size="14.00" fill="#000000">+</text>
<polyline fill="none" stroke="#000000" points="412.8386,-520.3 412.8386,-569.9 "/>
<text text-anchor="middle" x="434.8386" y="-540.9" font-family="Times,serif" font-size="14.00" fill="#000000">3,6,9</text>
</g>
<!-- node18&#45;&gt;node17 -->
<g id="edge17" class="edge">
<title>node18-&gt;node17</title>
<path fill="none" stroke="#000000" d="M400.8913,-520.1181C400.8913,-508.3934 400.8913,-494.2134 400.8913,-481.4152"/>
<polygon fill="#000000" stroke="#000000" points="404.3914,-481.0739 400.8913,-471.0739 397.3914,-481.0739 404.3914,-481.0739"/>
</g>
<!-- node19 -->
<g id="node19" class="node">
<title>node19</title>
<polygon fill="none" stroke="#000000" points="411,-619.3 411,-668.9 508.7826,-668.9 508.7826,-619.3 411,-619.3"/>
<text text-anchor="middle" x="433" y="-639.9" font-family="Times,serif" font-size="14.00" fill="#000000">1,4,7</text>
<polyline fill="none" stroke="#000000" points="455,-619.3 455,-668.9 "/>
<text text-anchor="middle" x="466.8913" y="-652.3" font-family="Times,serif" font-size="14.00" fill="#000000">F</text>
<polyline fill="none" stroke="#000000" points="455,-644.1 478.7826,-644.1 "/>
<text text-anchor="middle" x="466.8913" y="-627.5" font-family="Times,serif" font-size="14.00" fill="#000000">.</text>
<polyline fill="none" stroke="#000000" points="478.7826,-619.3 478.7826,-668.9 "/>
<text text-anchor="middle" x="493.7826" y="-639.9" font-family="Times,serif" font-size="14.00" fill="#000000">10</text>
</g>
<!-- node19&#45;&gt;node18 -->
<g id="edge18" class="edge">
<title>node19-&gt;node18</title>
<path fill="none" stroke="#000000" d="M445.0031,-619.1181C437.7361,-606.9244 428.8865,-592.0751 421.0265,-578.8863"/>
<polygon fill="#000000" stroke="#000000" points="423.9008,-576.8723 415.7747,-570.0739 417.8876,-580.4559 423.9008,-576.8723"/>
</g>
<!-- node20 -->
<g id="node20" class="node">
<title>node20</title>
<polygon fill="none" stroke="#000000" points="474.8913,-507.9 474.8913,-582.3 564.8913,-582.3 564.8913,-507.9 474.8913,-507.9"/>
<text text-anchor="middle" x="489.8913" y="-540.9" font-family="Times,serif" font-size="14.00" fill="#000000">10</text>
<polyline fill="none" stroke="#000000" points="504.8913,-507.9 504.8913,-582.3 "/>
<text text-anchor="middle" x="519.8913" y="-565.7" font-family="Times,serif" font-size="14.00" fill="#000000">F</text>
<polyline fill="none" stroke="#000000" points="504.8913,-557.5 534.8913,-557.5 "/>
<text text-anchor="middle" x="519.8913" y="-540.9" font-family="Times,serif" font-size="14.00" fill="#000000">#</text>
<polyline fill="none" stroke="#000000" points="504.8913,-532.7 534.8913,-532.7 "/>
<text text-anchor="middle" x="519.8913" y="-516.1" font-family="Times,serif" font-size="14.00" fill="#000000">10</text>
<polyline fill="none" stroke="#000000" points="534.8913,-507.9 534.8913,-582.3 "/>
<text text-anchor="middle" x="549.8913" y="-540.9" font-family="Times,serif" font-size="14.00" fill="#000000">10</text>
</g>
<!-- node19&#45;&gt;node20 -->
<g id="edge19" class="edge">
<title>node19-&gt;node20</title>
<path fill="none" stroke="#000000" d="M475.0318,-619.1181C480.1882,-610.6101 486.1282,-600.8092 491.9631,-591.1816"/>
<polygon fill="#000000" stroke="#000000" points="495.0768,-592.7967 497.2667,-582.4307 489.0904,-589.1686 495.0768,-592.7967"/>
</g>
</g>
</svg>