<?xml version="1.0" encoding="UTF-8" standalone="no"?><!DOCTYPE svg PUBLIC "-//W3C//DTD SVG 1.1//EN" "http://www.w3.org/Graphics/SVG/1.1/DTD/svg11.dtd"><!-- Generated by graphviz version 2.40.1 (20161225.0304)
 --><!-- Title: G Pages: 1 --><svg xmlns="http://www.w3.org/2000/svg" xmlns:xlink="http://www.w3.org/1999/xlink" width="354pt" height="476pt" viewBox="0.00 0.00 354.00 476.00">
<g id="graph0" class="graph" transform="scale(1 1) rotate(0) translate(4 472)">
<title>G</title>
<polygon fill="#ffffff" stroke="transparent" points="-4,4 -4,-472 350,-472 350,4 -4,4"/>
<!-- node1 -->
<g id="node1" class="node">
<title>node1</title>
<ellipse fill="none" stroke="#000000" cx="18" cy="-18" rx="18" ry="18"/>
<text text-anchor="middle" x="18" y="-13.8" font-family="Times,serif" font-size="14.00" fill="#000000">a</text>
</g>
<!-- node2 -->
<g id="node2" class="node">
<title>node2</title>
<ellipse fill="none" stroke="#000000" cx="72" cy="-18" rx="18" ry="18"/>
<text text-anchor="middle" x="72" y="-13.8" font-family="Times,serif" font-size="14.00" fill="#000000">a</text>
</g>
<!-- node3 -->
<g id="node3" class="node">
<title>node3</title>
<ellipse fill="none" stroke="#000000" cx="58" cy="-90" rx="18" ry="18"/>
<text text-anchor="middle" x="58" y="-85.8" font-family="Times,serif" font-size="14.00" fill="#000000">.</text>
</g>
<!-- node3&#45;&gt;node1 -->
<g id="edge1" class="edge">
<title>node3-&gt;node1</title>
<path fill="none" stroke="#000000" d="M49.1227,-74.0209C44.0476,-64.8857 37.5715,-53.2286 31.8423,-42.9162"/>
<polygon fill="#000000" stroke="#000000" points="34.7685,-40.9763 26.8525,-33.9345 28.6494,-44.3758 34.7685,-40.9763"/>
</g>
<!-- node3&#45;&gt;node2 -->
<g id="edge2" class="edge">
<title>node3-&gt;node2</title>
<path fill="none" stroke="#000000" d="M61.4607,-72.2022C63.0088,-64.2406 64.8703,-54.6671 66.5953,-45.7957"/>
<polygon fill="#000000" stroke="#000000" points="70.0575,-46.3268 68.5306,-35.8425 63.1862,-44.9906 70.0575,-46.3268"/>
</g>
<!-- node4 -->
<g id="node4" class="node">
<title>node4</title>
<ellipse fill="none" stroke="#000000" cx="112" cy="-90" rx="18" ry="18"/>
<text text-anchor="middle" x="112" y="-85.8" font-family="Times,serif" font-size="14.00" fill="#000000">a</text>
</g>
<!-- node5 -->
<g id="node5" class="node">
<title>node5</title>
<ellipse fill="none" stroke="#000000" cx="112" cy="-162" rx="18" ry="18"/>
<text text-anchor="middle" x="112" y="-157.8" font-family="Times,serif" font-size="14.00" fill="#000000">.</text>
</g>
<!-- node5&#45;&gt;node3 -->
<g id="edge3" class="edge">
<title>node5-&gt;node3</title>
<path fill="none" stroke="#000000" d="M101.0723,-147.4297C93.6066,-137.4754 83.5632,-124.0842 75.0526,-112.7368"/>
<polygon fill="#000000" stroke="#000000" points="77.7115,-110.4486 68.9115,-104.5486 72.1115,-114.6486 77.7115,-110.4486"/>
</g>
<!-- node5&#45;&gt;node4 -->
<g id="edge4" class="edge">
<title>node5-&gt;node4</title>
<path fill="none" stroke="#000000" d="M112,-143.8314C112,-136.131 112,-126.9743 112,-118.4166"/>
<polygon fill="#000000" stroke="#000000" points="115.5001,-118.4132 112,-108.4133 108.5001,-118.4133 115.5001,-118.4132"/>
</g>
<!-- node6 -->
<g id="node6" class="node">
<title>node6</title>
<ellipse fill="none" stroke="#000000" cx="153" cy="-18" rx="18" ry="18"/>
<text text-anchor="middle" x="153" y="-13.8" font-family="Times,serif" font-size="14.00" fill="#000000">0</text>
</g>
<!-- node7 -->
<g id="node7" class="node">
<title>node7</title>
<ellipse fill="none" stroke="#000000" cx="207" cy="-18" rx="18" ry="18"/>
<text text-anchor="middle" x="207" y="-13.8" font-family="Times,serif" font-size="14.00" fill="#000000">0</text>
</g>
<!-- node8 -->
<g id="node8" class="node">
<title>node8</title>
<ellipse fill="none" stroke="#000000" cx="166" cy="-90" rx="18" ry="18"/>
<text text-anchor="middle" x="166" y="-85.8" font-family="Times,serif" font-size="14.00" fill="#000000">.</text>
</g>
<!-- node8&#45;&gt;node6 -->
<g id="edge5" class="edge">
<title>node8-&gt;node6</title>
<path fill="none" stroke="#000000" d="M162.7865,-72.2022C161.349,-64.2406 159.6205,-54.6671 158.0187,-45.7957"/>
<polygon fill="#000000" stroke="#000000" points="161.4428,-45.0615 156.2216,-35.8425 154.5542,-46.3053 161.4428,-45.0615"/>
</g>
<!-- node8&#45;&gt;node7 -->
<g id="edge6" class="edge">
<title>node8-&gt;node7</title>
<path fill="none" stroke="#000000" d="M175.0992,-74.0209C180.3012,-64.8857 186.9392,-53.2286 192.8116,-42.9162"/>
<polygon fill="#000000" stroke="#000000" points="196.0192,-44.3563 197.9262,-33.9345 189.9363,-40.8924 196.0192,-44.3563"/>
</g>
<!-- node9 -->
<g id="node9" class="node">
<title>node9</title>
<ellipse fill="none" stroke="#000000" cx="220" cy="-90" rx="18" ry="18"/>
<text text-anchor="middle" x="220" y="-85.8" font-family="Times,serif" font-size="14.00" fill="#000000">0</text>
</g>
<!-- node10 -->
<g id="node10" class="node">
<title>node10</title>
<ellipse fill="none" stroke="#000000" cx="193" cy="-162" rx="18" ry="18"/>
<text text-anchor="middle" x="193" y="-157.8" font-family="Times,serif" font-size="14.00" fill="#000000">.</text>
</g>
<!-- node10&#45;&gt;node8 -->
<g id="edge7" class="edge">
<title>node10-&gt;node8</title>
<path fill="none" stroke="#000000" d="M186.6014,-144.937C183.407,-136.4186 179.471,-125.9227 175.8982,-116.3952"/>
<polygon fill="#000000" stroke="#000000" points="179.1411,-115.0749 172.3527,-106.9405 172.5868,-117.5328 179.1411,-115.0749"/>
</g>
<!-- node10&#45;&gt;node9 -->
<g id="edge8" class="edge">
<title>node10-&gt;node9</title>
<path fill="none" stroke="#000000" d="M199.3986,-144.937C202.593,-136.4186 206.529,-125.9227 210.1018,-116.3952"/>
<polygon fill="#000000" stroke="#000000" points="213.4132,-117.5328 213.6473,-106.9405 206.8589,-115.0749 213.4132,-117.5328"/>
</g>
<!-- node11 -->
<g id="node11" class="node">
<title>node11</title>
<ellipse fill="none" stroke="#000000" cx="193" cy="-234" rx="18" ry="18"/>
<text text-anchor="middle" x="193" y="-229.8" font-family="Times,serif" font-size="14.00" fill="#000000">|</text>
</g>
<!-- node11&#45;&gt;node5 -->
<g id="edge9" class="edge">
<title>node11-&gt;node5</title>
<path fill="none" stroke="#000000" d="M179.2595,-221.7862C166.6157,-210.5473 147.6738,-193.7101 133.1103,-180.7647"/>
<polygon fill="#000000" stroke="#000000" points="135.337,-178.0612 125.5376,-174.0334 130.6865,-183.2931 135.337,-178.0612"/>
</g>
<!-- node11&#45;&gt;node10 -->
<g id="edge10" class="edge">
<title>node11-&gt;node10</title>
<path fill="none" stroke="#000000" d="M193,-215.8314C193,-208.131 193,-198.9743 193,-190.4166"/>
<polygon fill="#000000" stroke="#000000" points="196.5001,-190.4132 193,-180.4133 189.5001,-190.4133 196.5001,-190.4132"/>
</g>
<!-- node12 -->
<g id="node12" class="node">
<title>node12</title>
<ellipse fill="none" stroke="#000000" cx="274" cy="-90" rx="18" ry="18"/>
<text text-anchor="middle" x="274" y="-85.8" font-family="Times,serif" font-size="14.00" fill="#000000">1</text>
</g>
<!-- node13 -->
<g id="node13" class="node">
<title>node13</title>
<ellipse fill="none" stroke="#000000" cx="328" cy="-90" rx="18" ry="18"/>
<text text-anchor="middle" x="328" y="-85.8" font-family="Times,serif" font-size="14.00" fill="#000000">1</text>
</g>
<!-- node14 -->
<g id="node14" class="node">
<title>node14</title>
<ellipse fill="none" stroke="#000000" cx="274" cy="-162" rx="18" ry="18"/>
<text text-anchor="middle" x="274" y="-157.8" font-family="Times,serif" font-size="14.00" fill="#000000">.</text>
</g>
<!-- node14&#45;&gt;node12 -->
<g id="edge11" class="edge">
<title>node14-&gt;node12</title>
<path fill="none" stroke="#000000" d="M274,-143.8314C274,-136.131 274,-126.9743 274,-118.4166"/>
<polygon fill="#000000" stroke="#000000" points="277.5001,-118.4132 274,-108.4133 270.5001,-118.4133 277.5001,-118.4132"/>
</g>
<!-- node14&#45;&gt;node13 -->
<g id="edge12" class="edge">
<title>node14-&gt;node13</title>
<path fill="none" stroke="#000000" d="M284.9277,-147.4297C292.3934,-137.4754 302.4368,-124.0842 310.9474,-112.7368"/>
<polygon fill="#000000" stroke="#000000" points="313.8885,-114.6486 317.0885,-104.5486 308.2885,-110.4486 313.8885,-114.6486"/>
</g>
<!-- node15 -->
<g id="node15" class="node">
<title>node15</title>
<ellipse fill="none" stroke="#000000" cx="328" cy="-162" rx="18" ry="18"/>
<text text-anchor="middle" x="328" y="-157.8" font-family="Times,serif" font-size="14.00" fill="#000000">1</text>
</g>
<!-- node16 -->
<g id="node16" class="node">
<title>node16</title>
<ellipse fill="none" stroke="#000000" cx="274" cy="-234" rx="18" ry="18"/>
<text text-anchor="middle" x="274" y="-229.8" font-family="Times,serif" font-size="14.00" fill="#000000">.</text>
</g>
<!-- node16&#45;&gt;node14 -->
<g id="edge13" class="edge">
<title>node16-&gt;node14</title>
<path fill="none" stroke="#000000" d="M274,-215.8314C274,-208.131 274,-198.9743 274,-190.4166"/>
<polygon fill="#000000" stroke="#000000" points="277.5001,-190.4132 274,-180.4133 270.5001,-190.4133 277.5001,-190.4132"/>
</g>
<!-- node16&#45;&gt;node15 -->
<g id="edge14" class="edge">
<title>node16-&gt;node15</title>
<path fill="none" stroke="#000000" d="M284.9277,-219.4297C292.3934,-209.4754 302.4368,-196.0842 310.9474,-184.7368"/>
<polygon fill="#000000" stroke="#000000" points="313.8885,-186.6486 317.0885,-176.5486 308.2885,-182.4486 313.8885,-186.6486"/>
</g>
<!-- node17 -->
<g id="node17" class="node">
<title>node17</title>
<ellipse fill="none" stroke="#000000" cx="220" cy="-306" rx="18" ry="18"/>
<text text-anchor="middle" x="220" y="-301.8" font-family="Times,serif" font-size="14.00" fill="#000000">|</text>
</g>
<!-- node17&#45;&gt;node11 -->
<g id="edge15" class="edge">
<title>node17-&gt;node11</title>
<path fill="none" stroke="#000000" d="M213.6014,-288.937C210.407,-280.4186 206.471,-269.9227 202.8982,-260.3952"/>
<polygon fill="#000000" stroke="#000000" points="206.1411,-259.0749 199.3527,-250.9405 199.5868,-261.5328 206.1411,-259.0749"/>
</g>
<!-- node17&#45;&gt;node16 -->
<g id="edge16" class="edge">
<title>node17-&gt;node16</title>
<path fill="none" stroke="#000000" d="M230.9277,-291.4297C238.3934,-281.4754 248.4368,-268.0842 256.9474,-256.7368"/>
<polygon fill="#000000" stroke="#000000" points="259.8885,-258.6486 263.0885,-248.5486 254.2885,-254.4486 259.8885,-258.6486"/>
</g>
<!-- node18 -->
<g id="node18" class="node">
<title>node18</title>
<ellipse fill="none" stroke="#000000" cx="220" cy="-378" rx="18" ry="18"/>
<text text-anchor="middle" x="220" y="-373.8" font-family="Times,serif" font-size="14.00" fill="#000000">+</text>
</g>
<!-- node18&#45;&gt;node17 -->
<g id="edge17" class="edge">
<title>node18-&gt;node17</title>
<path fill="none" stroke="#000000" d="M220,-359.8314C220,-352.131 220,-342.9743 220,-334.4166"/>
<polygon fill="#000000" stroke="#000000" points="223.5001,-334.4132 220,-324.4133 216.5001,-334.4133 223.5001,-334.4132"/>
</g>
<!-- node19 -->
<g id="node19" class="node">
<title>node19</title>
<ellipse fill="none" stroke="#000000" cx="247" cy="-450" rx="18" ry="18"/>
<text text-anchor="middle" x="247" y="-445.8" font-family="Times,serif" font-size="14.00" fill="#000000">.</text>
</g>
<!-- node19&#45;&gt;node18 -->
<g id="edge18" class="edge">
<title>node19-&gt;node18</title>
<path fill="none" stroke="#000000" d="M240.6014,-432.937C237.407,-424.4186 233.471,-413.9227 229.8982,-404.3952"/>
<polygon fill="#000000" stroke="#000000" points="233.1411,-403.0749 226.3527,-394.9405 226.5868,-405.5328 233.1411,-403.0749"/>
</g>
<!-- node20 -->
<g id="node20" class="node">
<title>node20</title>
<ellipse fill="none" stroke="#000000" cx="274" cy="-378" rx="18" ry="18"/>
<text text-anchor="middle" x="274" y="-373.8" font-family="Times,serif" font-size="14.00" fill="#000000">#</text>
</g>
<!-- node19&#45;&gt;node20 -->
<g id="edge19" class="edge">
<title>node19-&gt;node20</title>
<path fill="none" stroke="#000000" d="M253.3986,-432.937C256.593,-424.4186 260.529,-413.9227 264.1018,-404.3952"/>
<polygon fill="#000000" stroke="#000000" points="267.4132,-405.5328 267.6473,-394.9405 260.8589,-403.0749 267.4132,-405.5328"/>
</g>
</g>
</svg>