<?xml version="1.0" encoding="UTF-8" standalone="no"?><!DOCTYPE svg PUBLIC "-//W3C//DTD SVG 1.1//EN" "http://www.w3.org/Graphics/SVG/1.1/DTD/svg11.dtd"><!-- Generated by graphviz version 2.40.1 (20161225.0304)
 --><!-- Title: G Pages: 1 --><svg xmlns="http://www.w3.org/2000/svg" xmlns:xlink="http://www.w3.org/1999/xlink" width="284pt" height="48pt" viewBox="0.00 0.00 284.48 48.23">
<g id="graph0" class="graph" transform="scale(1 1) rotate(0) translate(4 44.2266)">
<title>G</title>
<polygon fill="#ffffff" stroke="transparent" points="-4,4 -4,-44.2266 280.4818,-44.2266 280.4818,4 -4,4"/>
<!-- node1 -->
<g id="node1" class="node">
<title>node1</title>
<ellipse fill="none" stroke="#000000" cx="18" cy="-22.2266" rx="18" ry="18"/>
<text text-anchor="middle" x="18" y="-18.0266" font-family="Times,serif" font-size="14.00" fill="#000000"> </text>
</g>
<!-- node2 -->
<g id="node2" class="node">
<title>node2</title>
<ellipse fill="none" stroke="#000000" cx="98.1606" cy="-22.2266" rx="18" ry="18"/>
<text text-anchor="middle" x="98.1606" y="-18.0266" font-family="Times,serif" font-size="14.00" fill="#000000"> </text>
</g>
<!-- node1&#45;&gt;node2 -->
<g id="edge1" class="edge">
<title>node1-&gt;node2</title>
<path fill="none" stroke="#000000" d="M36.1897,-22.2266C46.1312,-22.2266 58.6648,-22.2266 69.8547,-22.2266"/>
<polygon fill="#000000" stroke="#000000" points="70.0429,-25.7267 80.0429,-22.2266 70.0429,-18.7267 70.0429,-25.7267"/>
<text text-anchor="middle" x="58.0803" y="-26.4266" font-family="Times,serif" font-size="14.00" fill="#000000">Ɛ</text>
</g>
<!-- node3 -->
<g id="node3" class="node">
<title>node3</title>
<ellipse fill="none" stroke="#000000" cx="178.3212" cy="-22.2266" rx="18" ry="18"/>
<text text-anchor="middle" x="178.3212" y="-18.0266" font-family="Times,serif" font-size="14.00" fill="#000000"> </text>
</g>
<!-- node2&#45;&gt;node3 -->
<g id="edge2" class="edge">
<title>node2-&gt;node3</title>
<path fill="none" stroke="#000000" d="M116.3503,-22.2266C126.2918,-22.2266 138.8254,-22.2266 150.0153,-22.2266"/>
<polygon fill="#000000" stroke="#000000" points="150.2035,-25.7267 160.2035,-22.2266 150.2035,-18.7267 150.2035,-25.7267"/>
<text text-anchor="middle" x="138.2409" y="-26.4266" font-family="Times,serif" font-size="14.00" fill="#000000">a</text>
</g>
<!-- node3&#45;&gt;node2 -->
<g id="edge4" class="edge">
<title>node3-&gt;node2</title>
<path fill="none" stroke="#000000" d="M164.4918,-9.9968C156.0234,-3.9818 144.8018,1.4266 134.1606,-1.4266 129.9251,-2.5622 125.6726,-4.3301 121.6495,-6.3664"/>
<polygon fill="#000000" stroke="#000000" points="119.7362,-3.4287 112.7951,-11.4332 123.2129,-9.5043 119.7362,-3.4287"/>
<text text-anchor="middle" x="138.2409" y="-5.4266" font-family="Times,serif" font-size="14.00" fill="#000000">Ɛ</text>
</g>
<!-- node4 -->
<g id="node4" class="node">
<title>node4</title>
<ellipse fill="none" stroke="#000000" cx="258.4818" cy="-22.2266" rx="18" ry="18"/>
<text text-anchor="middle" x="258.4818" y="-18.0266" font-family="Times,serif" font-size="14.00" fill="#000000"> </text>
</g>
<!-- node3&#45;&gt;node4 -->
<g id="edge3" class="edge">
<title>node3-&gt;node4</title>
<path fill="none" stroke="#000000" d="M196.5109,-22.2266C206.4524,-22.2266 218.986,-22.2266 230.1759,-22.2266"/>
<polygon fill="#000000" stroke="#000000" points="230.3641,-25.7267 240.3641,-22.2266 230.3641,-18.7267 230.3641,-25.7267"/>
<text text-anchor="middle" x="218.4015" y="-26.4266" font-family="Times,serif" font-size="14.00" fill="#000000">Ɛ</text>
</g>
</g>
</svg>