<?xml version="1.0" encoding="UTF-8" standalone="no"?><!DOCTYPE svg PUBLIC "-//W3C//DTD SVG 1.1//EN" "http://www.w3.org/Graphics/SVG/1.1/DTD/svg11.dtd"><!-- Generated by graphviz version 2.40.1 (20161225.0304)
 --><!-- Title: G Pages: 1 --><svg xmlns="http://www.w3.org/2000/svg" xmlns:xlink="http://www.w3.org/1999/xlink" width="856pt" height="175pt" viewBox="0.00 0.00 855.80 174.69">
<g id="graph0" class="graph" transform="scale(1 1) rotate(0) translate(4 170.6935)">
<title>G</title>
<polygon fill="#ffffff" stroke="transparent" points="-4,4 -4,-170.6935 851.8035,-170.6935 851.8035,4 -4,4"/>
<!-- node0 -->
<g id="node1" class="node">
<title>node0</title>
<ellipse fill="none" stroke="#000000" cx="18" cy="-24.6935" rx="18" ry="18"/>
<text text-anchor="middle" x="18" y="-20.4935" font-family="Times,serif" font-size="14.00" fill="#000000">0</text>
</g>
<!-- node1 -->
<g id="node2" class="node">
<title>node1</title>
<ellipse fill="none" stroke="#000000" cx="130.4404" cy="-70.6935" rx="18" ry="18"/>
<text text-anchor="middle" x="130.4404" y="-66.4935" font-family="Times,serif" font-size="14.00" fill="#000000">1</text>
</g>
<!-- node0&#45;&gt;node1 -->
<g id="edge1" class="edge">
<title>node0-&gt;node1</title>
<path fill="none" stroke="#000000" d="M35.0773,-31.6799C53.4277,-39.1871 82.8234,-51.2131 104.1316,-59.9304"/>
<polygon fill="#000000" stroke="#000000" points="102.9901,-63.2449 113.5708,-63.792 105.6407,-56.7661 102.9901,-63.2449"/>
<text text-anchor="middle" x="74.2202" y="-60.8935" font-family="Times,serif" font-size="14.00" fill="#000000">epsilon</text>
</g>
<!-- node7 -->
<g id="node8" class="node">
<title>node7</title>
<ellipse fill="none" stroke="#000000" cx="580.202" cy="-24.6935" rx="18" ry="18"/>
<text text-anchor="middle" x="580.202" y="-20.4935" font-family="Times,serif" font-size="14.00" fill="#000000">7</text>
</g>
<!-- node0&#45;&gt;node7 -->
<g id="edge8" class="edge">
<title>node0-&gt;node7</title>
<path fill="none" stroke="#000000" d="M35.8048,-20.5731C57.8813,-15.8324 96.7234,-8.6935 130.4404,-8.6935 130.4404,-8.6935 130.4404,-8.6935 467.7616,-8.6935 496.8689,-8.6935 529.7956,-14.0138 552.4582,-18.5185"/>
<polygon fill="#000000" stroke="#000000" points="551.8957,-21.9762 562.3972,-20.5731 553.3128,-15.1211 551.8957,-21.9762"/>
<text text-anchor="middle" x="299.101" y="-12.8935" font-family="Times,serif" font-size="14.00" fill="#000000">epsilon</text>
</g>
<!-- node2 -->
<g id="node3" class="node">
<title>node2</title>
<ellipse fill="none" stroke="#000000" cx="242.8808" cy="-148.6935" rx="18" ry="18"/>
<text text-anchor="middle" x="242.8808" y="-144.4935" font-family="Times,serif" font-size="14.00" fill="#000000">2</text>
</g>
<!-- node1&#45;&gt;node2 -->
<g id="edge2" class="edge">
<title>node1-&gt;node2</title>
<path fill="none" stroke="#000000" d="M142.2043,-84.7262C148.8407,-92.1159 157.5644,-101.0058 166.4404,-107.6935 182.0292,-119.4388 201.4269,-129.8005 216.7808,-137.169"/>
<polygon fill="#000000" stroke="#000000" points="215.6636,-140.5098 226.206,-141.5633 218.6216,-134.1654 215.6636,-140.5098"/>
<text text-anchor="middle" x="186.6606" y="-135.8935" font-family="Times,serif" font-size="14.00" fill="#000000">epsilon</text>
</g>
<!-- node4 -->
<g id="node5" class="node">
<title>node4</title>
<ellipse fill="none" stroke="#000000" cx="242.8808" cy="-94.6935" rx="18" ry="18"/>
<text text-anchor="middle" x="242.8808" y="-90.4935" font-family="Times,serif" font-size="14.00" fill="#000000">4</text>
</g>
<!-- node1&#45;&gt;node4 -->
<g id="edge3" class="edge">
<title>node1-&gt;node4</title>
<path fill="none" stroke="#000000" d="M148.2569,-74.4963C166.2681,-78.3408 194.3526,-84.3353 215.2528,-88.7964"/>
<polygon fill="#000000" stroke="#000000" points="214.6373,-92.2437 225.1476,-90.9084 216.0986,-85.398 214.6373,-92.2437"/>
<text text-anchor="middle" x="186.6606" y="-90.8935" font-family="Times,serif" font-size="14.00" fill="#000000">epsilon</text>
</g>
<!-- node3 -->
<g id="node4" class="node">
<title>node3</title>
<ellipse fill="none" stroke="#000000" cx="355.3212" cy="-148.6935" rx="18" ry="18"/>
<text text-anchor="middle" x="355.3212" y="-144.4935" font-family="Times,serif" font-size="14.00" fill="#000000">3</text>
</g>
<!-- node2&#45;&gt;node3 -->
<g id="edge4" class="edge">
<title>node2-&gt;node3</title>
<path fill="none" stroke="#000000" d="M260.9463,-148.6935C278.8143,-148.6935 306.418,-148.6935 327.1644,-148.6935"/>
<polygon fill="#000000" stroke="#000000" points="327.3006,-152.1936 337.3005,-148.6935 327.3005,-145.1936 327.3006,-152.1936"/>
<text text-anchor="middle" x="299.101" y="-152.8935" font-family="Times,serif" font-size="14.00" fill="#000000">a</text>
</g>
<!-- node6 -->
<g id="node7" class="node">
<title>node6</title>
<ellipse fill="none" stroke="#000000" cx="467.7616" cy="-67.6935" rx="18" ry="18"/>
<text text-anchor="middle" x="467.7616" y="-63.4935" font-family="Times,serif" font-size="14.00" fill="#000000">6</text>
</g>
<!-- node3&#45;&gt;node6 -->
<g id="edge6" class="edge">
<title>node3-&gt;node6</title>
<path fill="none" stroke="#000000" d="M372.0666,-141.4223C388.2173,-133.9791 412.9187,-121.4356 431.7616,-106.6935 438.0482,-101.775 444.2023,-95.7196 449.5938,-89.8599"/>
<polygon fill="#000000" stroke="#000000" points="452.4313,-91.9337 456.4139,-82.1159 447.1781,-87.3072 452.4313,-91.9337"/>
<text text-anchor="middle" x="411.5414" y="-135.8935" font-family="Times,serif" font-size="14.00" fill="#000000">epsilon</text>
</g>
<!-- node5 -->
<g id="node6" class="node">
<title>node5</title>
<ellipse fill="none" stroke="#000000" cx="355.3212" cy="-94.6935" rx="18" ry="18"/>
<text text-anchor="middle" x="355.3212" y="-90.4935" font-family="Times,serif" font-size="14.00" fill="#000000">5</text>
</g>
<!-- node4&#45;&gt;node5 -->
<g id="edge5" class="edge">
<title>node4-&gt;node5</title>
<path fill="none" stroke="#000000" d="M260.9463,-94.6935C278.8143,-94.6935 306.418,-94.6935 327.1644,-94.6935"/>
<polygon fill="#000000" stroke="#000000" points="327.3006,-98.1936 337.3005,-94.6935 327.3005,-91.1936 327.3006,-98.1936"/>
<text text-anchor="middle" x="299.101" y="-98.8935" font-family="Times,serif" font-size="14.00" fill="#000000">b</text>
</g>
<!-- node5&#45;&gt;node6 -->
<g id="edge7" class="edge">
<title>node5-&gt;node6</title>
<path fill="none" stroke="#000000" d="M372.89,-90.4747C390.855,-86.1608 419.0257,-79.3963 440.0091,-74.3576"/>
<polygon fill="#000000" stroke="#000000" points="441.0387,-77.7099 449.9451,-71.9717 439.4042,-70.9034 441.0387,-77.7099"/>
<text text-anchor="middle" x="411.5414" y="-89.8935" font-family="Times,serif" font-size="14.00" fill="#000000">epsilon</text>
</g>
<!-- node6&#45;&gt;node1 -->
<g id="edge9" class="edge">
<title>node6-&gt;node1</title>
<path fill="none" stroke="#000000" d="M449.479,-67.4953C409.0071,-67.1002 308.7822,-66.3612 224.8808,-67.6935 202.6688,-68.0462 177.5292,-68.8652 158.7751,-69.5585"/>
<polygon fill="#000000" stroke="#000000" points="158.4009,-66.0701 148.5412,-69.9477 158.667,-73.0651 158.4009,-66.0701"/>
<text text-anchor="middle" x="299.101" y="-70.8935" font-family="Times,serif" font-size="14.00" fill="#000000">epsilon</text>
</g>
<!-- node6&#45;&gt;node7 -->
<g id="edge10" class="edge">
<title>node6-&gt;node7</title>
<path fill="none" stroke="#000000" d="M484.8389,-61.1627C503.1893,-54.145 532.585,-42.9034 553.8932,-34.7546"/>
<polygon fill="#000000" stroke="#000000" points="555.2423,-37.9859 563.3324,-31.1448 552.7419,-31.4477 555.2423,-37.9859"/>
<text text-anchor="middle" x="523.9818" y="-58.8935" font-family="Times,serif" font-size="14.00" fill="#000000">epsilon</text>
</g>
<!-- node8 -->
<g id="node9" class="node">
<title>node8</title>
<ellipse fill="none" stroke="#000000" cx="658.4166" cy="-24.6935" rx="18" ry="18"/>
<text text-anchor="middle" x="658.4166" y="-20.4935" font-family="Times,serif" font-size="14.00" fill="#000000">8</text>
</g>
<!-- node7&#45;&gt;node8 -->
<g id="edge11" class="edge">
<title>node7-&gt;node8</title>
<path fill="none" stroke="#000000" d="M598.3426,-24.6935C607.8194,-24.6935 619.6284,-24.6935 630.2622,-24.6935"/>
<polygon fill="#000000" stroke="#000000" points="630.3744,-28.1936 640.3744,-24.6935 630.3743,-21.1936 630.3744,-28.1936"/>
<text text-anchor="middle" x="619.3093" y="-28.8935" font-family="Times,serif" font-size="14.00" fill="#000000">a</text>
</g>
<!-- node9 -->
<g id="node10" class="node">
<title>node9</title>
<ellipse fill="none" stroke="#000000" cx="737.4166" cy="-24.6935" rx="18" ry="18"/>
<text text-anchor="middle" x="737.4166" y="-20.4935" font-family="Times,serif" font-size="14.00" fill="#000000">9</text>
</g>
<!-- node8&#45;&gt;node9 -->
<g id="edge12" class="edge">
<title>node8-&gt;node9</title>
<path fill="none" stroke="#000000" d="M676.7394,-24.6935C686.3113,-24.6935 698.2389,-24.6935 708.9795,-24.6935"/>
<polygon fill="#000000" stroke="#000000" points="709.1932,-28.1936 719.1932,-24.6935 709.1932,-21.1936 709.1932,-28.1936"/>
<text text-anchor="middle" x="697.9166" y="-28.8935" font-family="Times,serif" font-size="14.00" fill="#000000">b</text>
</g>
<!-- node10 -->
<g id="node11" class="node">
<title>node10</title>
<ellipse fill="none" stroke="#000000" cx="823.1101" cy="-24.6935" rx="20.8568" ry="20.8568"/>
<ellipse fill="none" stroke="#000000" cx="823.1101" cy="-24.6935" rx="24.8884" ry="24.8884"/>
<text text-anchor="middle" x="823.1101" y="-20.4935" font-family="Times,serif" font-size="14.00" fill="#000000">10</text>
</g>
<!-- node9&#45;&gt;node10 -->
<g id="edge13" class="edge">
<title>node9-&gt;node10</title>
<path fill="none" stroke="#000000" d="M755.59,-24.6935C764.9723,-24.6935 776.7489,-24.6935 787.8286,-24.6935"/>
<polygon fill="#000000" stroke="#000000" points="788.1369,-28.1935 798.1368,-24.6935 788.1368,-21.1935 788.1369,-28.1935"/>
<text text-anchor="middle" x="776.9166" y="-28.8935" font-family="Times,serif" font-size="14.00" fill="#000000">b</text>
</g>
</g>
</svg>