<?xml version="1.0" encoding="UTF-8" standalone="no"?><!DOCTYPE svg PUBLIC "-//W3C//DTD SVG 1.1//EN" "http://www.w3.org/Graphics/SVG/1.1/DTD/svg11.dtd"><!-- Generated by graphviz version 2.40.1 (20161225.0304)
 --><!-- Title: G Pages: 1 --><svg xmlns="http://www.w3.org/2000/svg" xmlns:xlink="http://www.w3.org/1999/xlink" width="796pt" height="157pt" viewBox="0.00 0.00 796.11 157.49">
<g id="graph0" class="graph" transform="scale(1 1) rotate(0) translate(4 153.4935)">
<title>G</title>
<polygon fill="#ffffff" stroke="transparent" points="-4,4 -4,-153.4935 792.1127,-153.4935 792.1127,4 -4,4"/>
<!-- node0 -->
<g id="node1" class="node">
<title>node0</title>
<ellipse fill="none" stroke="#000000" cx="18" cy="-50.6935" rx="18" ry="18"/>
<text text-anchor="middle" x="18" y="-46.4935" font-family="Times,serif" font-size="14.00" fill="#000000">0</text>
</g>
<!-- node1 -->
<g id="node2" class="node">
<title>node1</title>
<ellipse fill="none" stroke="#000000" cx="98.1606" cy="-77.6935" rx="18" ry="18"/>
<text text-anchor="middle" x="98.1606" y="-73.4935" font-family="Times,serif" font-size="14.00" fill="#000000">1</text>
</g>
<!-- node0&#45;&gt;node1 -->
<g id="edge1" class="edge">
<title>node0-&gt;node1</title>
<path fill="none" stroke="#000000" d="M35.3937,-56.5521C45.8642,-60.0788 59.4148,-64.6429 71.2443,-68.6274"/>
<polygon fill="#000000" stroke="#000000" points="70.4822,-72.0638 81.0763,-71.939 72.7166,-65.43 70.4822,-72.0638"/>
<text text-anchor="middle" x="58.0803" y="-69.8935" font-family="Times,serif" font-size="14.00" fill="#000000">ε</text>
</g>
<!-- node6 -->
<g id="node7" class="node">
<title>node6</title>
<ellipse fill="none" stroke="#000000" cx="98.1606" cy="-23.6935" rx="18" ry="18"/>
<text text-anchor="middle" x="98.1606" y="-19.4935" font-family="Times,serif" font-size="14.00" fill="#000000">6</text>
</g>
<!-- node0&#45;&gt;node6 -->
<g id="edge2" class="edge">
<title>node0-&gt;node6</title>
<path fill="none" stroke="#000000" d="M35.3937,-44.8349C45.8642,-41.3081 59.4148,-36.744 71.2443,-32.7595"/>
<polygon fill="#000000" stroke="#000000" points="72.7166,-35.9569 81.0763,-29.4479 70.4822,-29.3231 72.7166,-35.9569"/>
<text text-anchor="middle" x="58.0803" y="-42.8935" font-family="Times,serif" font-size="14.00" fill="#000000">ε</text>
</g>
<!-- node2 -->
<g id="node3" class="node">
<title>node2</title>
<ellipse fill="none" stroke="#000000" cx="178.3212" cy="-77.6935" rx="18" ry="18"/>
<text text-anchor="middle" x="178.3212" y="-73.4935" font-family="Times,serif" font-size="14.00" fill="#000000">2</text>
</g>
<!-- node1&#45;&gt;node2 -->
<g id="edge3" class="edge">
<title>node1-&gt;node2</title>
<path fill="none" stroke="#000000" d="M116.3503,-77.6935C126.2918,-77.6935 138.8254,-77.6935 150.0153,-77.6935"/>
<polygon fill="#000000" stroke="#000000" points="150.2035,-81.1936 160.2035,-77.6935 150.2035,-74.1936 150.2035,-81.1936"/>
<text text-anchor="middle" x="138.2409" y="-81.8935" font-family="Times,serif" font-size="14.00" fill="#000000">a</text>
</g>
<!-- node3 -->
<g id="node4" class="node">
<title>node3</title>
<ellipse fill="none" stroke="#000000" cx="258.4818" cy="-117.6935" rx="18" ry="18"/>
<text text-anchor="middle" x="258.4818" y="-113.4935" font-family="Times,serif" font-size="14.00" fill="#000000">3</text>
</g>
<!-- node2&#45;&gt;node3 -->
<g id="edge4" class="edge">
<title>node2-&gt;node3</title>
<path fill="none" stroke="#000000" d="M194.5429,-85.788C205.6254,-91.3182 220.5344,-98.7578 233.1679,-105.0619"/>
<polygon fill="#000000" stroke="#000000" points="231.7736,-108.2776 242.2842,-109.6109 234.8991,-102.0141 231.7736,-108.2776"/>
<text text-anchor="middle" x="218.4015" y="-102.8935" font-family="Times,serif" font-size="14.00" fill="#000000">ε</text>
</g>
<!-- node5 -->
<g id="node6" class="node">
<title>node5</title>
<ellipse fill="none" stroke="#000000" cx="421.4965" cy="-77.6935" rx="18" ry="18"/>
<text text-anchor="middle" x="421.4965" y="-73.4935" font-family="Times,serif" font-size="14.00" fill="#000000">5</text>
</g>
<!-- node2&#45;&gt;node5 -->
<g id="edge5" class="edge">
<title>node2-&gt;node5</title>
<path fill="none" stroke="#000000" d="M196.5989,-77.6935C238.6869,-77.6935 342.6922,-77.6935 393.1434,-77.6935"/>
<polygon fill="#000000" stroke="#000000" points="393.3384,-81.1936 403.3384,-77.6935 393.3384,-74.1936 393.3384,-81.1936"/>
<text text-anchor="middle" x="298.5621" y="-81.8935" font-family="Times,serif" font-size="14.00" fill="#000000">ε</text>
</g>
<!-- node4 -->
<g id="node5" class="node">
<title>node4</title>
<ellipse fill="none" stroke="#000000" cx="338.6424" cy="-117.6935" rx="18" ry="18"/>
<text text-anchor="middle" x="338.6424" y="-113.4935" font-family="Times,serif" font-size="14.00" fill="#000000">4</text>
</g>
<!-- node3&#45;&gt;node4 -->
<g id="edge6" class="edge">
<title>node3-&gt;node4</title>
<path fill="none" stroke="#000000" d="M274.5387,-125.9768C280.619,-128.6826 287.7097,-131.339 294.4818,-132.6935 300.6872,-133.9345 307.2197,-133.0197 313.3011,-131.1497"/>
<polygon fill="#000000" stroke="#000000" points="314.9681,-134.2538 322.9726,-127.3128 312.3867,-127.7472 314.9681,-134.2538"/>
<text text-anchor="middle" x="298.5621" y="-136.8935" font-family="Times,serif" font-size="14.00" fill="#000000">b</text>
</g>
<!-- node4&#45;&gt;node3 -->
<g id="edge7" class="edge">
<title>node4-&gt;node3</title>
<path fill="none" stroke="#000000" d="M321.0648,-113.6704C312.9872,-112.2634 303.2689,-111.1901 294.4818,-111.8935 291.8866,-112.1012 289.1962,-112.3918 286.5082,-112.7334"/>
<polygon fill="#000000" stroke="#000000" points="285.7386,-109.3091 276.3588,-114.2355 286.7635,-116.2337 285.7386,-109.3091"/>
<text text-anchor="middle" x="298.5621" y="-115.8935" font-family="Times,serif" font-size="14.00" fill="#000000">ε</text>
</g>
<!-- node4&#45;&gt;node5 -->
<g id="edge8" class="edge">
<title>node4-&gt;node5</title>
<path fill="none" stroke="#000000" d="M355.0117,-109.7907C366.7001,-104.1478 382.6515,-96.4469 395.9998,-90.0027"/>
<polygon fill="#000000" stroke="#000000" points="397.6774,-93.0793 405.1612,-85.5797 394.634,-86.7755 397.6774,-93.0793"/>
<text text-anchor="middle" x="378.7227" y="-103.8935" font-family="Times,serif" font-size="14.00" fill="#000000">ε</text>
</g>
<!-- node11 -->
<g id="node12" class="node">
<title>node11</title>
<ellipse fill="none" stroke="#000000" cx="507.044" cy="-48.6935" rx="20.8887" ry="20.8887"/>
<text text-anchor="middle" x="507.044" y="-44.4935" font-family="Times,serif" font-size="14.00" fill="#000000">11</text>
</g>
<!-- node5&#45;&gt;node11 -->
<g id="edge9" class="edge">
<title>node5-&gt;node11</title>
<path fill="none" stroke="#000000" d="M438.8083,-71.8249C450.0131,-68.0265 464.8829,-62.9857 477.8809,-58.5795"/>
<polygon fill="#000000" stroke="#000000" points="479.017,-61.8901 487.3639,-55.3648 476.7696,-55.2607 479.017,-61.8901"/>
<text text-anchor="middle" x="464.2702" y="-68.8935" font-family="Times,serif" font-size="14.00" fill="#000000">ε</text>
</g>
<!-- node7 -->
<g id="node8" class="node">
<title>node7</title>
<ellipse fill="none" stroke="#000000" cx="178.3212" cy="-23.6935" rx="18" ry="18"/>
<text text-anchor="middle" x="178.3212" y="-19.4935" font-family="Times,serif" font-size="14.00" fill="#000000">7</text>
</g>
<!-- node6&#45;&gt;node7 -->
<g id="edge10" class="edge">
<title>node6-&gt;node7</title>
<path fill="none" stroke="#000000" d="M116.3503,-23.6935C126.2918,-23.6935 138.8254,-23.6935 150.0153,-23.6935"/>
<polygon fill="#000000" stroke="#000000" points="150.2035,-27.1936 160.2035,-23.6935 150.2035,-20.1936 150.2035,-27.1936"/>
<text text-anchor="middle" x="138.2409" y="-27.8935" font-family="Times,serif" font-size="14.00" fill="#000000">ε</text>
</g>
<!-- node8 -->
<g id="node9" class="node">
<title>node8</title>
<ellipse fill="none" stroke="#000000" cx="258.4818" cy="-20.6935" rx="18" ry="18"/>
<text text-anchor="middle" x="258.4818" y="-16.4935" font-family="Times,serif" font-size="14.00" fill="#000000">8</text>
</g>
<!-- node7&#45;&gt;node8 -->
<g id="edge11" class="edge">
<title>node7-&gt;node8</title>
<path fill="none" stroke="#000000" d="M196.5109,-23.0127C206.4524,-22.6406 218.986,-22.1716 230.1759,-21.7528"/>
<polygon fill="#000000" stroke="#000000" points="230.502,-25.2431 240.3641,-21.3715 230.2402,-18.248 230.502,-25.2431"/>
<text text-anchor="middle" x="218.4015" y="-26.8935" font-family="Times,serif" font-size="14.00" fill="#000000">b</text>
</g>
<!-- node8&#45;&gt;node7 -->
<g id="edge12" class="edge">
<title>node8-&gt;node7</title>
<path fill="none" stroke="#000000" d="M244.1062,-9.1425C235.6343,-3.7255 224.5941,.9745 214.3212,-1.8935 209.8458,-3.1429 205.3723,-5.1168 201.1761,-7.3782"/>
<polygon fill="#000000" stroke="#000000" points="199.2734,-4.4388 192.5394,-12.6182 202.9044,-10.4234 199.2734,-4.4388"/>
<text text-anchor="middle" x="218.4015" y="-6.8935" font-family="Times,serif" font-size="14.00" fill="#000000">ε</text>
</g>
<!-- node9 -->
<g id="node10" class="node">
<title>node9</title>
<ellipse fill="none" stroke="#000000" cx="338.6424" cy="-20.6935" rx="18" ry="18"/>
<text text-anchor="middle" x="338.6424" y="-16.4935" font-family="Times,serif" font-size="14.00" fill="#000000">9</text>
</g>
<!-- node8&#45;&gt;node9 -->
<g id="edge13" class="edge">
<title>node8-&gt;node9</title>
<path fill="none" stroke="#000000" d="M276.6715,-20.6935C286.613,-20.6935 299.1466,-20.6935 310.3365,-20.6935"/>
<polygon fill="#000000" stroke="#000000" points="310.5247,-24.1936 320.5247,-20.6935 310.5247,-17.1936 310.5247,-24.1936"/>
<text text-anchor="middle" x="298.5621" y="-24.8935" font-family="Times,serif" font-size="14.00" fill="#000000">ε</text>
</g>
<!-- node10 -->
<g id="node11" class="node">
<title>node10</title>
<ellipse fill="none" stroke="#000000" cx="421.4965" cy="-20.6935" rx="20.8887" ry="20.8887"/>
<text text-anchor="middle" x="421.4965" y="-16.4935" font-family="Times,serif" font-size="14.00" fill="#000000">10</text>
</g>
<!-- node9&#45;&gt;node10 -->
<g id="edge14" class="edge">
<title>node9-&gt;node10</title>
<path fill="none" stroke="#000000" d="M357.0304,-20.6935C366.7851,-20.6935 379.0387,-20.6935 390.2361,-20.6935"/>
<polygon fill="#000000" stroke="#000000" points="390.532,-24.1935 400.532,-20.6935 390.532,-17.1935 390.532,-24.1935"/>
<text text-anchor="middle" x="378.7227" y="-24.8935" font-family="Times,serif" font-size="14.00" fill="#000000">a</text>
</g>
<!-- node10&#45;&gt;node11 -->
<g id="edge15" class="edge">
<title>node10-&gt;node11</title>
<path fill="none" stroke="#000000" d="M441.6824,-25.9492C449.9939,-28.2248 459.6866,-31.0227 468.3505,-33.8935 471.491,-34.9341 474.7522,-36.0786 477.9894,-37.256"/>
<polygon fill="#000000" stroke="#000000" points="476.8915,-40.5823 487.4838,-40.8163 479.3493,-34.0279 476.8915,-40.5823"/>
<text text-anchor="middle" x="464.2702" y="-38.8935" font-family="Times,serif" font-size="14.00" fill="#000000">ε</text>
</g>
<!-- node12 -->
<g id="node13" class="node">
<title>node12</title>
<ellipse fill="none" stroke="#000000" cx="590.6455" cy="-48.6935" rx="20.8887" ry="20.8887"/>
<text text-anchor="middle" x="590.6455" y="-44.4935" font-family="Times,serif" font-size="14.00" fill="#000000">12</text>
</g>
<!-- node11&#45;&gt;node12 -->
<g id="edge16" class="edge">
<title>node11-&gt;node12</title>
<path fill="none" stroke="#000000" d="M528.1401,-48.6935C537.7177,-48.6935 549.2354,-48.6935 559.7603,-48.6935"/>
<polygon fill="#000000" stroke="#000000" points="559.8457,-52.1936 569.8456,-48.6935 559.8456,-45.1936 559.8457,-52.1936"/>
<text text-anchor="middle" x="548.8447" y="-52.8935" font-family="Times,serif" font-size="14.00" fill="#000000">a</text>
</g>
<!-- node13 -->
<g id="node14" class="node">
<title>node13</title>
<ellipse fill="none" stroke="#000000" cx="675.0324" cy="-48.6935" rx="20.8887" ry="20.8887"/>
<text text-anchor="middle" x="675.0324" y="-44.4935" font-family="Times,serif" font-size="14.00" fill="#000000">13</text>
</g>
<!-- node12&#45;&gt;node13 -->
<g id="edge17" class="edge">
<title>node12-&gt;node13</title>
<path fill="none" stroke="#000000" d="M611.5052,-48.6935C621.2422,-48.6935 633.0363,-48.6935 643.806,-48.6935"/>
<polygon fill="#000000" stroke="#000000" points="644.1202,-52.1935 654.1202,-48.6935 644.1202,-45.1935 644.1202,-52.1935"/>
<text text-anchor="middle" x="632.8389" y="-52.8935" font-family="Times,serif" font-size="14.00" fill="#000000">b</text>
</g>
<!-- node14 -->
<g id="node15" class="node">
<title>node14</title>
<ellipse fill="none" stroke="#000000" cx="763.4193" cy="-48.6935" rx="20.8568" ry="20.8568"/>
<ellipse fill="none" stroke="#000000" cx="763.4193" cy="-48.6935" rx="24.8884" ry="24.8884"/>
<text text-anchor="middle" x="763.4193" y="-44.4935" font-family="Times,serif" font-size="14.00" fill="#000000">14</text>
</g>
<!-- node13&#45;&gt;node14 -->
<g id="edge18" class="edge">
<title>node13-&gt;node14</title>
<path fill="none" stroke="#000000" d="M695.9788,-48.6935C705.6503,-48.6935 717.3982,-48.6935 728.3618,-48.6935"/>
<polygon fill="#000000" stroke="#000000" points="728.5395,-52.1936 738.5395,-48.6935 728.5394,-45.1936 728.5395,-52.1936"/>
<text text-anchor="middle" x="717.2258" y="-52.8935" font-family="Times,serif" font-size="14.00" fill="#000000">b</text>
</g>
</g>
</svg>