<?xml version="1.0" encoding="UTF-8" standalone="no"?><!DOCTYPE svg PUBLIC "-//W3C//DTD SVG 1.1//EN" "http://www.w3.org/Graphics/SVG/1.1/DTD/svg11.dtd"><!-- Generated by graphviz version 2.40.1 (20161225.0304)
 --><!-- Title: G Pages: 1 --><svg xmlns="http://www.w3.org/2000/svg" xmlns:xlink="http://www.w3.org/1999/xlink" width="445pt" height="148pt" viewBox="0.00 0.00 444.80 148.00">
<g id="graph0" class="graph" transform="scale(1 1) rotate(0) translate(4 144)">
<title>G</title>
<polygon fill="#ffffff" stroke="transparent" points="-4,4 -4,-144 440.803,-144 440.803,4 -4,4"/>
<!-- node1 -->
<g id="node1" class="node">
<title>node1</title>
<ellipse fill="none" stroke="#000000" cx="18" cy="-45" rx="18" ry="18"/>
<text text-anchor="middle" x="18" y="-40.8" font-family="Times,serif" font-size="14.00" fill="#000000"> </text>
</g>
<!-- node2 -->
<g id="node2" class="node">
<title>node2</title>
<ellipse fill="none" stroke="#000000" cx="98.1606" cy="-72" rx="18" ry="18"/>
<text text-anchor="middle" x="98.1606" y="-67.8" font-family="Times,serif" font-size="14.00" fill="#000000"> </text>
</g>
<!-- node1&#45;&gt;node2 -->
<g id="edge1" class="edge">
<title>node1-&gt;node2</title>
<path fill="none" stroke="#000000" d="M35.3937,-50.8586C45.8642,-54.3853 59.4148,-58.9495 71.2443,-62.934"/>
<polygon fill="#000000" stroke="#000000" points="70.4822,-66.3704 81.0763,-66.2456 72.7166,-59.7366 70.4822,-66.3704"/>
<text text-anchor="middle" x="58.0803" y="-64.2" font-family="Times,serif" font-size="14.00" fill="#000000">Ɛ</text>
</g>
<!-- node3 -->
<g id="node3" class="node">
<title>node3</title>
<ellipse fill="none" stroke="#000000" cx="98.1606" cy="-18" rx="18" ry="18"/>
<text text-anchor="middle" x="98.1606" y="-13.8" font-family="Times,serif" font-size="14.00" fill="#000000"> </text>
</g>
<!-- node1&#45;&gt;node3 -->
<g id="edge2" class="edge">
<title>node1-&gt;node3</title>
<path fill="none" stroke="#000000" d="M35.3937,-39.1414C45.8642,-35.6147 59.4148,-31.0505 71.2443,-27.066"/>
<polygon fill="#000000" stroke="#000000" points="72.7166,-30.2634 81.0763,-23.7544 70.4822,-23.6296 72.7166,-30.2634"/>
<text text-anchor="middle" x="58.0803" y="-37.2" font-family="Times,serif" font-size="14.00" fill="#000000">Ɛ</text>
</g>
<!-- node4 -->
<g id="node4" class="node">
<title>node4</title>
<ellipse fill="none" stroke="#000000" cx="178.3212" cy="-122" rx="18" ry="18"/>
<text text-anchor="middle" x="178.3212" y="-117.8" font-family="Times,serif" font-size="14.00" fill="#000000"> </text>
</g>
<!-- node2&#45;&gt;node4 -->
<g id="edge3" class="edge">
<title>node2-&gt;node4</title>
<path fill="none" stroke="#000000" d="M113.6164,-81.6405C125.1495,-88.8343 141.1239,-98.7983 154.3145,-107.0259"/>
<polygon fill="#000000" stroke="#000000" points="152.5758,-110.0664 162.9129,-112.3891 156.2804,-104.127 152.5758,-110.0664"/>
<text text-anchor="middle" x="138.2409" y="-102.2" font-family="Times,serif" font-size="14.00" fill="#000000">Ɛ</text>
</g>
<!-- node5 -->
<g id="node5" class="node">
<title>node5</title>
<ellipse fill="none" stroke="#000000" cx="178.3212" cy="-68" rx="18" ry="18"/>
<text text-anchor="middle" x="178.3212" y="-63.8" font-family="Times,serif" font-size="14.00" fill="#000000"> </text>
</g>
<!-- node2&#45;&gt;node5 -->
<g id="edge4" class="edge">
<title>node2-&gt;node5</title>
<path fill="none" stroke="#000000" d="M116.3503,-71.0923C126.2918,-70.5963 138.8254,-69.9708 150.0153,-69.4125"/>
<polygon fill="#000000" stroke="#000000" points="150.3904,-72.8982 160.2035,-68.9041 150.0415,-65.9069 150.3904,-72.8982"/>
<text text-anchor="middle" x="138.2409" y="-75.2" font-family="Times,serif" font-size="14.00" fill="#000000">Ɛ</text>
</g>
<!-- node9 -->
<g id="node9" class="node">
<title>node9</title>
<ellipse fill="none" stroke="#000000" cx="338.6424" cy="-18" rx="18" ry="18"/>
<text text-anchor="middle" x="338.6424" y="-13.8" font-family="Times,serif" font-size="14.00" fill="#000000"> </text>
</g>
<!-- node3&#45;&gt;node9 -->
<g id="edge9" class="edge">
<title>node3-&gt;node9</title>
<path fill="none" stroke="#000000" d="M116.2358,-18C157.7559,-18 260.2084,-18 310.2365,-18"/>
<polygon fill="#000000" stroke="#000000" points="310.3575,-21.5001 320.3574,-18 310.3574,-14.5001 310.3575,-21.5001"/>
<text text-anchor="middle" x="218.4015" y="-22.2" font-family="Times,serif" font-size="14.00" fill="#000000">Ɛ</text>
</g>
<!-- node6 -->
<g id="node6" class="node">
<title>node6</title>
<ellipse fill="none" stroke="#000000" cx="258.4818" cy="-122" rx="18" ry="18"/>
<text text-anchor="middle" x="258.4818" y="-117.8" font-family="Times,serif" font-size="14.00" fill="#000000"> </text>
</g>
<!-- node4&#45;&gt;node6 -->
<g id="edge5" class="edge">
<title>node4-&gt;node6</title>
<path fill="none" stroke="#000000" d="M196.5109,-122C206.4524,-122 218.986,-122 230.1759,-122"/>
<polygon fill="#000000" stroke="#000000" points="230.3641,-125.5001 240.3641,-122 230.3641,-118.5001 230.3641,-125.5001"/>
<text text-anchor="middle" x="218.4015" y="-126.2" font-family="Times,serif" font-size="14.00" fill="#000000">a</text>
</g>
<!-- node7 -->
<g id="node7" class="node">
<title>node7</title>
<ellipse fill="none" stroke="#000000" cx="258.4818" cy="-68" rx="18" ry="18"/>
<text text-anchor="middle" x="258.4818" y="-63.8" font-family="Times,serif" font-size="14.00" fill="#000000"> </text>
</g>
<!-- node5&#45;&gt;node7 -->
<g id="edge6" class="edge">
<title>node5-&gt;node7</title>
<path fill="none" stroke="#000000" d="M196.5109,-68C206.4524,-68 218.986,-68 230.1759,-68"/>
<polygon fill="#000000" stroke="#000000" points="230.3641,-71.5001 240.3641,-68 230.3641,-64.5001 230.3641,-71.5001"/>
<text text-anchor="middle" x="218.4015" y="-72.2" font-family="Times,serif" font-size="14.00" fill="#000000">b</text>
</g>
<!-- node8 -->
<g id="node8" class="node">
<title>node8</title>
<ellipse fill="none" stroke="#000000" cx="338.6424" cy="-72" rx="18" ry="18"/>
<text text-anchor="middle" x="338.6424" y="-67.8" font-family="Times,serif" font-size="14.00" fill="#000000"> </text>
</g>
<!-- node6&#45;&gt;node8 -->
<g id="edge7" class="edge">
<title>node6-&gt;node8</title>
<path fill="none" stroke="#000000" d="M273.9376,-112.3595C285.4707,-105.1657 301.4451,-95.2017 314.6357,-86.9741"/>
<polygon fill="#000000" stroke="#000000" points="316.6016,-89.873 323.2341,-81.6109 312.897,-83.9336 316.6016,-89.873"/>
<text text-anchor="middle" x="298.5621" y="-102.2" font-family="Times,serif" font-size="14.00" fill="#000000">Ɛ</text>
</g>
<!-- node7&#45;&gt;node8 -->
<g id="edge8" class="edge">
<title>node7-&gt;node8</title>
<path fill="none" stroke="#000000" d="M276.6715,-68.9077C286.613,-69.4037 299.1466,-70.0292 310.3365,-70.5875"/>
<polygon fill="#000000" stroke="#000000" points="310.3627,-74.0931 320.5247,-71.0959 310.7116,-67.1018 310.3627,-74.0931"/>
<text text-anchor="middle" x="298.5621" y="-75.2" font-family="Times,serif" font-size="14.00" fill="#000000">Ɛ</text>
</g>
<!-- node10 -->
<g id="node10" class="node">
<title>node10</title>
<ellipse fill="none" stroke="#000000" cx="418.803" cy="-45" rx="18" ry="18"/>
<text text-anchor="middle" x="418.803" y="-40.8" font-family="Times,serif" font-size="14.00" fill="#000000"> </text>
</g>
<!-- node8&#45;&gt;node10 -->
<g id="edge10" class="edge">
<title>node8-&gt;node10</title>
<path fill="none" stroke="#000000" d="M356.0361,-66.1414C366.5066,-62.6147 380.0572,-58.0505 391.8867,-54.066"/>
<polygon fill="#000000" stroke="#000000" points="393.359,-57.2634 401.7187,-50.7544 391.1246,-50.6296 393.359,-57.2634"/>
<text text-anchor="middle" x="378.7227" y="-64.2" font-family="Times,serif" font-size="14.00" fill="#000000">Ɛ</text>
</g>
<!-- node9&#45;&gt;node10 -->
<g id="edge11" class="edge">
<title>node9-&gt;node10</title>
<path fill="none" stroke="#000000" d="M356.0361,-23.8586C366.5066,-27.3853 380.0572,-31.9495 391.8867,-35.934"/>
<polygon fill="#000000" stroke="#000000" points="391.1246,-39.3704 401.7187,-39.2456 393.359,-32.7366 391.1246,-39.3704"/>
<text text-anchor="middle" x="378.7227" y="-37.2" font-family="Times,serif" font-size="14.00" fill="#000000">Ɛ</text>
</g>
</g>
</svg>