<?xml version="1.0" encoding="UTF-8" standalone="no"?><!DOCTYPE svg PUBLIC "-//W3C//DTD SVG 1.1//EN" "http://www.w3.org/Graphics/SVG/1.1/DTD/svg11.dtd"><!-- Generated by graphviz version 2.40.1 (20161225.0304)
 --><!-- Title: G Pages: 1 --><svg xmlns="http://www.w3.org/2000/svg" xmlns:xlink="http://www.w3.org/1999/xlink" width="284pt" height="88pt" viewBox="0.00 0.00 284.48 87.80">
<g id="graph0" class="graph" transform="scale(1 1) rotate(0) translate(4 83.8)">
<title>G</title>
<polygon fill="#ffffff" stroke="transparent" points="-4,4 -4,-83.8 280.4818,-83.8 280.4818,4 -4,4"/>
<!-- node1 -->
<g id="node1" class="node">
<title>node1</title>
<ellipse fill="none" stroke="#000000" cx="18" cy="-18" rx="18" ry="18"/>
<text text-anchor="middle" x="18" y="-13.8" font-family="Times,serif" font-size="14.00" fill="#000000"> </text>
</g>
<!-- node2 -->
<g id="node3" class="node">
<title>node2</title>
<ellipse fill="none" stroke="#000000" cx="98.1606" cy="-48" rx="18" ry="18"/>
<text text-anchor="middle" x="98.1606" y="-43.8" font-family="Times,serif" font-size="14.00" fill="#000000"> </text>
</g>
<!-- node1&#45;&gt;node2 -->
<g id="edge1" class="edge">
<title>node1-&gt;node2</title>
<path fill="none" stroke="#000000" d="M35,-24.3622C45.6278,-28.3397 59.5398,-33.5462 71.6014,-38.0602"/>
<polygon fill="#000000" stroke="#000000" points="70.5927,-41.4198 81.1851,-41.6469 73.0463,-34.8639 70.5927,-41.4198"/>
<text text-anchor="middle" x="58.0803" y="-37.2" font-family="Times,serif" font-size="14.00" fill="#000000">Ɛ</text>
</g>
<!-- node4 -->
<g id="node4" class="node">
<title>node4</title>
<ellipse fill="none" stroke="#000000" cx="258.4818" cy="-18" rx="18" ry="18"/>
<text text-anchor="middle" x="258.4818" y="-13.8" font-family="Times,serif" font-size="14.00" fill="#000000"> </text>
</g>
<!-- node1&#45;&gt;node4 -->
<g id="edge5" class="edge">
<title>node1-&gt;node4</title>
<path fill="none" stroke="#000000" d="M36.0752,-18C77.5953,-18 180.0478,-18 230.0759,-18"/>
<polygon fill="#000000" stroke="#000000" points="230.1969,-21.5001 240.1968,-18 230.1968,-14.5001 230.1969,-21.5001"/>
<text text-anchor="middle" x="138.2409" y="-22.2" font-family="Times,serif" font-size="14.00" fill="#000000">Ɛ</text>
</g>
<!-- node3 -->
<g id="node2" class="node">
<title>node3</title>
<ellipse fill="none" stroke="#000000" cx="178.3212" cy="-48" rx="18" ry="18"/>
<text text-anchor="middle" x="178.3212" y="-43.8" font-family="Times,serif" font-size="14.00" fill="#000000"> </text>
</g>
<!-- node3&#45;&gt;node2 -->
<g id="edge4" class="edge">
<title>node3-&gt;node2</title>
<path fill="none" stroke="#000000" d="M160.7436,-43.9769C152.666,-42.5699 142.9477,-41.4967 134.1606,-42.2 131.5654,-42.4077 128.875,-42.6984 126.187,-43.04"/>
<polygon fill="#000000" stroke="#000000" points="125.4174,-39.6156 116.0376,-44.5421 126.4423,-46.5402 125.4174,-39.6156"/>
<text text-anchor="middle" x="138.2409" y="-46.2" font-family="Times,serif" font-size="14.00" fill="#000000">Ɛ</text>
</g>
<!-- node3&#45;&gt;node4 -->
<g id="edge3" class="edge">
<title>node3-&gt;node4</title>
<path fill="none" stroke="#000000" d="M195.3212,-41.6378C205.949,-37.6603 219.861,-32.4538 231.9226,-27.9398"/>
<polygon fill="#000000" stroke="#000000" points="233.3675,-31.1361 241.5063,-24.3531 230.9139,-24.5802 233.3675,-31.1361"/>
<text text-anchor="middle" x="218.4015" y="-37.2" font-family="Times,serif" font-size="14.00" fill="#000000">Ɛ</text>
</g>
<!-- node2&#45;&gt;node3 -->
<g id="edge2" class="edge">
<title>node2-&gt;node3</title>
<path fill="none" stroke="#000000" d="M114.2175,-56.2833C120.2978,-58.9892 127.3885,-61.6456 134.1606,-63 140.366,-64.2411 146.8985,-63.3263 152.9799,-61.4562"/>
<polygon fill="#000000" stroke="#000000" points="154.6469,-64.5604 162.6514,-57.6193 152.0655,-58.0537 154.6469,-64.5604"/>
<text text-anchor="middle" x="138.2409" y="-67.2" font-family="Times,serif" font-size="14.00" fill="#000000">a</text>
</g>
</g>
</svg>