<?xml version="1.0" encoding="UTF-8" standalone="no"?><!DOCTYPE svg PUBLIC "-//W3C//DTD SVG 1.1//EN" "http://www.w3.org/Graphics/SVG/1.1/DTD/svg11.dtd"><!-- Generated by graphviz version 2.40.1 (20161225.0304)
 --><!-- Title: G Pages: 1 --><svg xmlns="http://www.w3.org/2000/svg" xmlns:xlink="http://www.w3.org/1999/xlink" width="284pt" height="74pt" viewBox="0.00 0.00 284.48 74.00">
<g id="graph0" class="graph" transform="scale(1 1) rotate(0) translate(4 70)">
<title>G</title>
<polygon fill="#ffffff" stroke="transparent" points="-4,4 -4,-70 280.4818,-70 280.4818,4 -4,4"/>
<!-- node1 -->
<g id="node1" class="node">
<title>node1</title>
<ellipse fill="none" stroke="#000000" cx="18" cy="-18" rx="18" ry="18"/>
<text text-anchor="middle" x="18" y="-13.8" font-family="Times,serif" font-size="14.00" fill="#000000"> </text>
</g>
<!-- node2 -->
<g id="node3" class="node">
<title>node2</title>
<ellipse fill="none" stroke="#000000" cx="98.1606" cy="-48" rx="18" ry="18"/>
<text text-anchor="middle" x="98.1606" y="-43.8" font-family="Times,serif" font-size="14.00" fill="#000000"> </text>
</g>
<!-- node1&#45;&gt;node2 -->
<g id="edge1" class="edge">
<title>node1-&gt;node2</title>
<path fill="none" stroke="#000000" d="M35,-24.3622C45.6278,-28.3397 59.5398,-33.5462 71.6014,-38.0602"/>
<polygon fill="#000000" stroke="#000000" points="70.5927,-41.4198 81.1851,-41.6469 73.0463,-34.8639 70.5927,-41.4198"/>
<text text-anchor="middle" x="58.0803" y="-38.2" font-family="Times,serif" font-size="14.00" fill="#000000">Ɛ</text>
</g>
<!-- node4 -->
<g id="node4" class="node">
<title>node4</title>
<ellipse fill="none" stroke="#000000" cx="258.4818" cy="-18" rx="18" ry="18"/>
<text text-anchor="middle" x="258.4818" y="-13.8" font-family="Times,serif" font-size="14.00" fill="#000000"> </text>
</g>
<!-- node1&#45;&gt;node4 -->
<g id="edge4" class="edge">
<title>node1-&gt;node4</title>
<path fill="none" stroke="#000000" d="M36.0752,-18C77.5953,-18 180.0478,-18 230.0759,-18"/>
<polygon fill="#000000" stroke="#000000" points="230.1969,-21.5001 240.1968,-18 230.1968,-14.5001 230.1969,-21.5001"/>
<text text-anchor="middle" x="138.2409" y="-22.2" font-family="Times,serif" font-size="14.00" fill="#000000">Ɛ</text>
</g>
<!-- node3 -->
<g id="node2" class="node">
<title>node3</title>
<ellipse fill="none" stroke="#000000" cx="178.3212" cy="-48" rx="18" ry="18"/>
<text text-anchor="middle" x="178.3212" y="-43.8" font-family="Times,serif" font-size="14.00" fill="#000000"> </text>
</g>
<!-- node3&#45;&gt;node4 -->
<g id="edge3" class="edge">
<title>node3-&gt;node4</title>
<path fill="none" stroke="#000000" d="M195.3212,-41.6378C205.949,-37.6603 219.861,-32.4538 231.9226,-27.9398"/>
<polygon fill="#000000" stroke="#000000" points="233.3675,-31.1361 241.5063,-24.3531 230.9139,-24.5802 233.3675,-31.1361"/>
<text text-anchor="middle" x="218.4015" y="-38.2" font-family="Times,serif" font-size="14.00" fill="#000000">Ɛ</text>
</g>
<!-- node2&#45;&gt;node3 -->
<g id="edge2" class="edge">
<title>node2-&gt;node3</title>
<path fill="none" stroke="#000000" d="M116.3503,-48C126.2918,-48 138.8254,-48 150.0153,-48"/>
<polygon fill="#000000" stroke="#000000" points="150.2035,-51.5001 160.2035,-48 150.2035,-44.5001 150.2035,-51.5001"/>
<text text-anchor="middle" x="138.2409" y="-52.2" font-family="Times,serif" font-size="14.00" fill="#000000">a</text>
</g>
</g>
</svg>